<?xml version="1.0" encoding="UTF-8" standalone="no"?>
<!-- Created with Inkscape (http://www.inkscape.org/) -->

<svg
   xmlns:dc="http://purl.org/dc/elements/1.1/"
   xmlns:cc="http://creativecommons.org/ns#"
   xmlns:rdf="http://www.w3.org/1999/02/22-rdf-syntax-ns#"
   xmlns:svg="http://www.w3.org/2000/svg"
   xmlns="http://www.w3.org/2000/svg"
   xmlns:sodipodi="http://sodipodi.sourceforge.net/DTD/sodipodi-0.dtd"
   xmlns:inkscape="http://www.inkscape.org/namespaces/inkscape"
   id="svg4435"
   version="1.1"
   inkscape:version="0.91 r13725"
   width="1022.712"
   height="298.59567"
   viewBox="0 0 1022.7121 298.59565"
   sodipodi:docname="Firma de Miguel Villanueva.svg">
  <metadata
     id="metadata4441">
    <rdf:RDF>
      <cc:Work
         rdf:about="">
        <dc:format>image/svg+xml</dc:format>
        <dc:type
           rdf:resource="http://purl.org/dc/dcmitype/StillImage" />
        <dc:title></dc:title>
      </cc:Work>
    </rdf:RDF>
  </metadata>
  <defs
     id="defs4439" />
  <sodipodi:namedview
     pagecolor="#ffffff"
     bordercolor="#666666"
     borderopacity="1"
     objecttolerance="10"
     gridtolerance="10"
     guidetolerance="10"
     inkscape:pageopacity="0"
     inkscape:pageshadow="2"
     inkscape:window-width="1301"
     inkscape:window-height="744"
     id="namedview4437"
     showgrid="false"
     fit-margin-left="3"
     fit-margin-top="3"
     fit-margin-right="3"
     fit-margin-bottom="3"
     inkscape:zoom="0.33262303"
     inkscape:cx="606.36549"
     inkscape:cy="-187.42328"
     inkscape:window-x="65"
     inkscape:window-y="24"
     inkscape:window-maximized="1"
     inkscape:current-layer="svg4435" />
  <path
     style="fill:#000000"
     d="M 36,295.27948 C 22.63648,294.08357 13.50546,290.56345 7.1708,284.16546 L 3,279.95297 l 0.021,-8.05266 0.021,-8.05265 5.70045,-6 c 3.13525,-3.3 6.44671,-6.45 7.35882,-7 0.9121,-0.55 8.90721,-5.3875 17.7669,-10.75 8.85969,-5.3625 16.93877,-9.75 17.95349,-9.75 1.01473,0 2.1346,-0.28964 2.4886,-0.64364 0.92138,-0.92138 11.96446,-5.3462 13.35636,-5.35173 0.64167,-0.003 1.31667,-0.36423 1.5,-0.80375 0.52407,-1.25635 26.48743,-11.20088 29.24349,-11.20088 1.3595,0 2.72853,-0.41538 3.0423,-0.92306 0.31377,-0.50769 2.02782,-1.23302 3.80902,-1.61185 1.78119,-0.37884 7.18273,-1.98846 12.00341,-3.57694 4.82069,-1.58848 9.60675,-2.88815 10.63569,-2.88815 1.02895,0 3.15975,-0.67223 4.73512,-1.49384 1.57537,-0.82161 3.88292,-1.49661 5.12788,-1.5 1.24496,-0.003 3.04496,-0.41118 4,-0.90621 2.45951,-1.27484 38.06112,-9.46422 48.23643,-11.09574 5.10674,-0.81882 9.55392,-1.6606 21,-3.97493 2.475,-0.50043 7.65,-1.20807 11.5,-1.57253 3.85,-0.36446 7.70371,-1.03732 8.56379,-1.49523 0.86009,-0.45792 6.03509,-1.31403 11.5,-1.90247 20.70538,-2.22947 26.9639,-3.0781 29.93701,-4.05931 3.18731,-1.05191 16.77434,-2.52627 36.4992,-3.96061 6.325,-0.45994 14.17015,-1.3319 17.43366,-1.93769 3.26351,-0.60579 9.97665,-1.10144 14.91809,-1.10144 4.94143,0 11.72128,-0.43579 15.06634,-0.96843 5.68061,-0.90453 45.98364,-2.84741 74.73494,-3.60273 13.48042,-0.35414 31.18648,-2.41139 41.84697,-4.86217 3.575,-0.82187 8.75,-1.99417 11.5,-2.60512 2.75,-0.61094 6.41801,-1.75222 8.15113,-2.53618 1.73312,-0.78395 4.51906,-1.42537 6.19098,-1.42537 1.67192,0 3.28588,-0.39808 3.58658,-0.88461 0.30069,-0.48654 2.68975,-1.20365 5.30901,-1.59359 2.61927,-0.38993 5.2123,-1.0649 5.7623,-1.49991 0.55,-0.43502 2.575,-1.11987 4.5,-1.52189 1.925,-0.40202 4.01486,-1.14454 4.64412,-1.65005 0.62927,-0.5055 3.45492,-1.19278 6.27921,-1.52728 2.8243,-0.33449 5.3735,-0.99393 5.66489,-1.46542 0.2914,-0.47149 1.67275,-0.85725 3.06967,-0.85725 1.39692,0 3.95786,-0.63114 5.69098,-1.40254 1.73312,-0.7714 6.30113,-2.14402 10.15113,-3.05026 3.85,-0.90624 9.25,-2.29547 12,-3.08717 8.71128,-2.50789 25.76156,-6.64732 32.5,-7.89027 3.575,-0.65943 7.175,-1.4954 8,-1.8577 0.825,-0.3623 3.3,-1.10054 5.5,-1.64054 2.2,-0.54 6.7,-1.71982 10,-2.62182 5.7764,-1.57888 9.4126,-2.50405 23.5,-5.97924 12.12809,-2.99185 29.27816,-6.8431 40,-8.98246 4.125,-0.82308 10.65,-2.19278 14.5,-3.04378 3.85,-0.851 10.375,-2.186961 14.5,-2.968791 4.125,-0.78184 10.425,-2.13448 14,-3.00587 3.575,-0.8714 9.47326,-2.16727 13.10725,-2.87972 3.63398,-0.71244 7.05037,-1.56922 7.59196,-1.90394 0.5416,-0.33473 3.41833,-1.05697 6.39275,-1.60498 2.97442,-0.54801 8.78304,-1.69334 12.90804,-2.54516 4.125,-0.85183 10.5375,-2.05021 14.25,-2.66307 10.01036,-1.65253 8.96249,-4.87713 -2.04026,-6.27847 -2.90965,-0.37058 -6.28465,-1.06072 -7.5,-1.53363 -1.21536,-0.47291 -5.80974,-1.63052 -10.20974,-2.57246 -4.4,-0.94194 -8.68977,-2.05489 -9.53282,-2.47322 -0.84306,-0.41833 -3.09306,-1.069027 -5,-1.445994 -1.90695,-0.376967 -4.36718,-1.057894 -5.46718,-1.513172 -7.81204,-3.233317 -9.86855,-3.317465 -15.71544,-0.643038 -3.11102,1.423012 -6.27024,2.587294 -7.02048,2.587294 -0.75025,0 -1.79158,0.40259 -2.31408,0.89465 -0.5225,0.49205 -2.35142,1.18939 -4.06427,1.54964 -2.4476,0.51478 -3.73505,0.13266 -6.01406,-1.785 -2.88024,-2.423568 -2.95021,-2.430472 -10.38428,-1.024785 -4.11647,0.778375 -8.75213,1.136805 -10.30147,0.796515 -2.45871,-0.540027 -2.77684,-1.020106 -2.50144,-3.774866 0.30519,-3.052816 0.20092,-3.14527 -3.18448,-2.823721 -1.925,0.182839 -5.525,0.915002 -8,1.62703 -11.2466,3.235512 -15.70093,3.775955 -33.9163,4.115068 -14.84294,0.276329 -20.14265,0.04091 -22.5,-0.999467 -1.69604,-0.748516 -3.94484,-1.648251 -4.99734,-1.999411 -1.75919,-0.58694 -10.59226,1.882562 -18.23749,5.098737 -3.6925,1.55335 -9.51722,1.71131 -14.14656,0.38363 -2.73846,-0.78538 -3.84278,-0.56311 -6.64272,1.33698 -1.84702,1.25342 -4.86603,2.83547 -6.70891,3.51567 -1.84287,0.68019 -4.70068,1.84104 -6.35068,2.57967 -1.65,0.73862 -4.87818,1.60528 -7.17373,1.92592 -3.48258,0.48644 -4.65984,0.17394 -7.10933,-1.88717 -2.46532,-2.07443 -3.4337,-2.32731 -6.0446,-1.57852 -1.70995,0.49041 -4.12337,1.60215 -5.36317,2.47054 -1.2398,0.86839 -3.29489,1.57889 -4.56686,1.57889 -1.27197,0 -3.30934,0.64982 -4.52749,1.44405 -1.94949,1.27106 -4.13427,1.96048 -13.40511,4.23007 -2.61789,0.64089 -7.30971,-3.54489 -7.30971,-6.5213 0,-1.73215 -0.98287,-1.45897 -9.25,2.57097 -5.0875,2.47997 -10.44443,5.13166 -11.90429,5.89263 -1.45986,0.76097 -3.28814,1.38358 -4.06285,1.38358 -0.7747,0 -3.74057,1.125 -6.5908,2.5 -2.85024,1.375 -5.52196,2.51527 -5.93716,2.53393 -0.41519,0.0187 -2.5549,0.90339 -4.7549,1.96607 -6.52248,3.150581 -11.5,2.455031 -11.5,-1.60699 0,-2.73398 -3.38892,-3.42783 -4.36163,-0.89301 -0.35225,0.91797 -1.86824,1.5 -3.90699,1.5 -1.83226,0 -3.81656,0.48518 -4.40956,1.07818 -0.593,0.593 -2.3705,0.9305 -3.95,0.75 -2.21686,-0.25333 -2.93894,-0.90313 -3.16615,-2.84919 -0.23144,-1.98243 0.85607,-3.51418 5.09053,-7.16994 2.96166,-2.55692 7.14411,-5.40259 9.29432,-6.32371 7.69378,-3.29591 14.43231,-5.20363 16.78909,-4.75311 1.31795,0.25195 3.31724,-0.0348 4.44286,-0.63722 2.71901,-1.45517 7.17753,0.21776 7.17753,2.69315 0,2.12334 -3.8318,5.89608 -9.3232,9.17948 -2.65986,1.59038 -3.50505,2.60411 -2.77764,3.33152 0.96715,0.96715 4.49615,-0.23888 10.10084,-3.45196 0.825,-0.47296 2.175,-1.12018 3,-1.43826 17.02667,-6.56464 27.44383,-12.56142 31.28346,-18.008749 1.99281,-2.827227 3.85492,-4.400191 5.20904,-4.400191 4.10435,0 6.03303,4.489034 3.0075,7 -2.07168,1.71934 -2.0045,8.86918 0.0909,9.67325 0.875,0.33577 3.14026,-0.12835 5.03393,-1.03138 1.89367,-0.90303 4.21128,-1.64187 5.15025,-1.64187 4.01941,0 16.85651,-7.54622 22.00058,-12.932919 4.39119,-4.598302 5.56474,-5.343286 7,-4.443657 2.41042,1.510865 2.67565,4.905762 0.70732,9.053696 -2.33064,4.91146 -0.86988,6.17105 4.64453,4.00493 6.15412,-2.4174 17.7964,-9.671342 18.93417,-11.797275 2.29284,-4.284228 8.93832,-4.632284 8.93832,-0.468144 0,1.200853 -0.54,2.723369 -1.2,3.383369 -0.90353,0.903532 -0.91622,1.483782 -0.0513,2.348653 0.86487,0.864872 1.71722,0.778616 3.45,-0.349133 1.26574,-0.823783 4.04425,-1.821461 6.17446,-2.217062 2.13021,-0.395601 4.60521,-1.084878 5.5,-1.531726 6.98639,-3.488948 11.28917,-5.050732 13.91494,-5.050732 3.25099,0 6.2119,2.184612 6.2119,4.583246 0,2.442934 7.97329,0.627993 12,-2.731532 8.1627,-6.810219 20.81486,-10.189577 23.96017,-6.399702 1.57719,1.900392 0.45589,5.281162 -2.01132,6.064223 -1.07187,0.340197 -1.94885,1.02535 -1.94885,1.522561 0,0.497211 -1.4625,1.35963 -3.25,1.916486 -2.8501,0.887885 -2.57324,0.957254 2.25,0.563754 9.31241,-0.759744 26.39998,-4.677375 31.15429,-7.142677 3.38997,-1.757839 11.25928,-1.787894 12.70283,-0.04851 0.74911,0.90262 0.80065,2.378661 0.16093,4.609221 -0.92163,3.213547 -0.88504,3.267858 1.77043,2.627399 1.49134,-0.359688 4.28652,-1.01631 6.21152,-1.45916 5.0481,-1.161324 22.28698,-7.211842 23.68953,-8.314574 2.14472,-1.686248 6.78102,-0.497082 7.11233,1.824243 0.21714,1.521399 2.393,3.135153 7.75286,5.75 4.09806,1.99926 8.33445,3.635022 9.41422,3.635022 1.07976,0 3.44097,0.623165 5.24713,1.384812 3.6634,1.544834 9.54678,3.178978 17.78393,4.939608 3.025,0.64657 5.95,1.46016 6.5,1.80798 0.55,0.34782 2.575,0.96229 4.5,1.36548 1.925,0.40318 4.05838,1.18278 4.74084,1.73244 0.68246,0.54965 2.676,0.78873 4.43009,0.53128 1.75409,-0.25744 4.9083,-0.0818 7.00936,0.39024 3.65404,0.82101 14.64736,-0.57807 23.81971,-3.03145 1.925,-0.51488 8.9,-1.69429 15.5,-2.62089 6.6,-0.9266 12.73635,-2.06492 13.63632,-2.5296 0.89998,-0.464676 4.49998,-1.156635 8,-1.537686 3.50003,-0.381051 6.83799,-1.066096 7.41771,-1.522322 0.57972,-0.456225 4.17972,-1.28079 8,-1.832366 3.82028,-0.551577 10.54597,-1.724509 14.94597,-2.606516 4.4,-0.882008 11.375,-2.239478 15.5,-3.016601 18.19229,-3.427308 23.535,-4.508496 26.90575,-5.444833 1.97684,-0.549132 5.2146,-1.000932 7.19503,-1.003999 1.98042,-0.0031 4.90542,-0.459894 6.5,-1.015171 3.0037,-1.045977 9.74587,-2.149123 26.95281,-4.409989 5.52948,-0.726533 10.92951,-1.589369 12.00001,-1.917415 1.0705,-0.328045 7.1214,-1.073756 13.44644,-1.657134 6.325,-0.583378 12.4988,-1.278479 13.7195,-1.54467 1.5907,-0.346865 2.6857,0.227526 3.865,2.027409 1.4646,2.235312 1.4831,2.758739 0.1678,4.761393 -0.8381,1.276153 -3.5092,2.846017 -6.1715,3.627053 -4.1794,1.226157 -5.0437,1.191426 -7.8873,-0.316949 -3.4225,-1.81549 -3.2272,-1.829434 -27.19354,1.941877 -4.95,0.778928 -11.925,1.862099 -15.5,2.407046 -10.09852,1.539345 -25.03446,4.117415 -30,5.178255 -2.475,0.528761 -7.90755,1.34181 -12.07232,1.806777 -4.16478,0.464967 -8.5227,1.354018 -9.68426,1.975668 -1.16157,0.62165 -4.07652,1.130273 -6.47768,1.130273 -2.40116,0 -4.85606,0.490324 -5.45535,1.089609 -0.59928,0.599285 -4.62678,1.471614 -8.95,1.938511 -4.32321,0.46689 -10.78539,1.56941 -14.36039,2.45005 -3.575,0.88063 -9.875,2.22851 -14,2.99529 -4.125,0.76678 -9.3,1.86319 -11.5,2.43648 -2.2,0.57329 -5.66094,1.05308 -7.69098,1.0662 -2.03004,0.0131 -3.94964,0.44237 -4.26577,0.95387 -0.31612,0.51151 -3.15518,1.23411 -6.30901,1.60579 -3.15383,0.37168 -7.84153,1.34509 -10.41711,2.16314 -5.00682,1.59025 -5.3042,2.70317 -1.8173,6.80106 0.93599,1.1 2.28119,4.15099 2.98934,6.77998 1.13544,4.215311 1.07629,5.248461 -0.50073,8.745661 -1.6634,3.68875 -7.14037,8.97436 -9.29927,8.97436 -0.51936,0 -1.50448,0.675 -2.18917,1.5 -0.68469,0.825 -2.20229,1.51431 -3.37244,1.5318 -1.17016,0.0175 -3.00107,0.6925 -4.06869,1.5 -1.06762,0.80751 -2.98012,1.4682 -4.25,1.4682 -1.26988,0 -2.30887,0.44143 -2.30887,0.98095 0,0.53952 -1.2375,1.24953 -2.75,1.57779 -1.5125,0.32827 -3.65,0.99966 -4.75,1.49198 -3.81847,1.70902 -11.01953,4.11091 -14.57706,4.86214 -1.96739,0.41544 -4.1303,1.09726 -4.80648,1.51516 -0.67617,0.4179 -3.56649,1.14482 -6.42293,1.61538 -2.85644,0.47055 -9.24353,1.72027 -14.19353,2.77715 -21.35801,4.56016 -28.64781,5.84623 -49,8.64461 -5.5,0.75623 -12.025,1.82021 -14.5,2.36439 -7.76853,1.70808 -18.13574,3.2335 -28.5,4.19347 -5.5,0.50942 -12.25,1.36082 -15,1.89199 -2.75,0.53117 -7.78321,0.99259 -11.1849,1.02538 -3.4017,0.0328 -7.33914,0.49845 -8.74988,1.03481 -1.41073,0.53636 -11.67753,1.6498 -22.8151,2.4743 -11.13756,0.82451 -24.97512,1.94224 -30.75012,2.48385 -5.775,0.54161 -18.15,1.25255 -27.5,1.57986 -9.35,0.32731 -21.275,1.06042 -26.5,1.62912 -5.225,0.56871 -12.29657,0.78775 -15.71459,0.48677 -4.39739,-0.38722 -7.02907,-0.12239 -9,0.90567 -1.66347,0.86769 -5.60495,1.45208 -9.78541,1.45086 -7.29995,-0.002 -23.69951,3.57639 -41.5721,9.07139 -5.26465,1.61864 -10.05071,2.94298 -10.63569,2.94298 -0.58498,0 -2.35253,0.67223 -3.9279,1.49384 -1.57537,0.82161 -3.76431,1.51092 -4.86431,1.5318 -1.1,0.0209 -2.87351,0.69866 -3.94113,1.50616 -1.06762,0.80751 -3.09262,1.48289 -4.5,1.50085 -2.629,0.0335 -12.58898,3.16412 -13.74519,4.32034 -0.35586,0.35585 -1.39623,0.64701 -2.31194,0.64701 -1.72505,0 -9.19067,2.19355 -24.26662,7.13002 -4.82069,1.57849 -9.66429,2.86998 -10.76357,2.86998 -1.09928,0 -2.78008,0.39715 -3.73512,0.88255 -0.95504,0.4854 -4.43643,1.86667 -7.73643,3.06948 -3.3,1.20282 -6.7321,2.57489 -7.62689,3.04905 -0.89479,0.47416 -3.32793,1.18122 -5.40697,1.57125 -2.07904,0.39003 -4.94694,1.31804 -6.37311,2.06225 -1.42616,0.7442 -3.10409,1.35587 -3.72872,1.35926 -0.62463,0.003 -2.42463,0.67839 -4,1.5 -1.57537,0.82161 -4.01181,1.49661 -5.41431,1.5 -1.4025,0.003 -2.9775,0.39111 -3.5,0.86161 -1.05885,0.95348 -10.67298,4.14455 -12.48677,4.14455 -0.63853,0 -2.57898,0.63585 -4.3121,1.413 -1.73312,0.77716 -6.52613,2.3913 -10.65113,3.587 -4.125,1.1957 -8.91801,2.80984 -10.65113,3.587 -1.73312,0.77715 -3.74308,1.413 -4.46657,1.413 -1.27766,0 -8.33472,2.32429 -12.3823,4.0782 -6.60506,2.86212 -12.89778,4.9218 -15.03702,4.9218 -1.35464,0 -2.46298,0.38728 -2.46298,0.86062 0,0.90898 -13.08692,5.46688 -26.5,9.22939 -4.4,1.23425 -8.45547,2.58518 -9.01215,3.00208 -1.03416,0.77448 -11.58414,3.61857 -16.98785,4.57962 -1.65,0.29345 -5.25,1.56132 -8,2.8175 -2.75,1.25617 -6.575,2.61195 -8.5,3.01284 -1.925,0.40089 -3.95,1.06654 -4.5,1.47923 -0.55,0.41268 -2.125,0.9941 -3.5,1.29204 -1.375,0.29794 -5.65,1.71047 -9.5,3.13896 -6.8428,2.53893 -8.2041,2.95514 -19.5,5.96213 -3.025,0.80526 -6.85,1.92273 -8.5,2.48326 -3.8215,1.29824 -8.7407,2.57297 -20,5.18269 -4.95,1.14733 -9.76785,2.49915 -10.70633,3.00404 -0.93847,0.5049 -3.63847,1.21315 -6,1.5739 -2.36152,0.36075 -5.14519,1.0943 -6.18593,1.63012 -1.04075,0.53582 -5.31575,1.33976 -9.5,1.78652 -8.26559,0.88254 -16.01832,2.8402 -18.21821,4.60033 -1.81449,1.45177 -9.73802,2.02603 -17.88953,1.29655 z m 13.3847,-7.89785 c 3.36342,-0.53132 10.23792,-1.4026 15.27669,-1.93619 5.03876,-0.53358 9.98876,-1.43068 11,-1.99355 1.7895,-0.99607 6.62401,-2.20096 16.83861,-4.19665 2.75,-0.53729 5.9,-1.3742 7,-1.8598 3.58884,-1.58432 8.91137,-3.16917 13.5,-4.0198 6.61728,-1.22671 43.03199,-11.90442 46.33104,-13.58544 1.55707,-0.79339 3.71692,-1.44254 4.79966,-1.44254 1.08274,0 3.18377,-0.62745 4.66896,-1.39433 1.48519,-0.76689 12.37534,-4.56424 24.20034,-8.43857 26.82439,-8.7887 30.76232,-10.06279 34.5,-11.16225 1.65,-0.48535 7.5,-2.54005 13,-4.56601 5.5,-2.02595 12.025,-4.28517 14.5,-5.02049 2.475,-0.73533 9,-2.96365 14.5,-4.95183 9.44507,-3.41427 12.58865,-4.43221 18.5,-5.99054 3.47746,-0.91672 20.7593,-6.40327 25,-7.93687 1.925,-0.69616 6.875,-2.29213 11,-3.5466 4.125,-1.25448 8.4,-2.65079 9.5,-3.10292 4.40164,-1.8092 17.29014,-6.21229 22,-7.51585 2.75,-0.76112 9.05,-2.78485 14,-4.49717 9.71376,-3.36023 26.24728,-8.32361 33.5,-10.05674 2.475,-0.59143 5.38763,-1.69284 6.47251,-2.44758 1.08487,-0.75474 2.94242,-1.37225 4.12787,-1.37225 1.18546,0 3.77087,-0.675 5.74538,-1.5 1.9745,-0.825 4.95446,-1.5 6.62212,-1.5 1.66767,0 3.03212,-0.44468 3.03212,-0.98818 0,-0.5435 1.79182,-1.27471 3.98182,-1.6249 2.19028,-0.35024 3.71194,-1.07341 3.38198,-1.60729 -0.8077,-1.3069 -50.00217,-0.24782 -53.69437,1.15595 -1.5398,0.58543 -6.93283,1.08404 -11.98453,1.10801 -5.05169,0.024 -13.9099,0.45684 -19.6849,0.96192 -5.775,0.50509 -17.025,1.43732 -25,2.07163 -7.975,0.63431 -15.24723,1.54573 -16.1605,2.02536 -0.91328,0.47964 -5.63828,1.1432 -10.5,1.47458 -4.86173,0.33137 -10.40975,1.08255 -12.32894,1.66929 -1.9192,0.58673 -8.6692,1.41471 -15,1.83996 -6.33081,0.42525 -15.11056,1.50501 -19.51056,2.39947 -4.4,0.89445 -11.375,2.03931 -15.5,2.54414 -4.125,0.50482 -9.075,1.37522 -11,1.93421 -1.925,0.55899 -6.875,1.4319 -11,1.9398 -4.125,0.50789 -9.3,1.40155 -11.5,1.98589 -2.2,0.58435 -5.71708,1.07318 -7.81574,1.0863 -2.09866,0.0131 -4.59987,0.44351 -5.55825,0.95642 -0.95837,0.51291 -4.64129,1.39055 -8.18426,1.95032 -3.54296,0.55977 -9.59175,1.69883 -13.44175,2.53124 -3.85,0.83242 -9.475,2.04122 -12.5,2.68623 -3.025,0.64501 -6.91801,1.7863 -8.65113,2.5362 -1.73312,0.7499 -4.26918,1.36345 -5.63569,1.36345 -1.36651,0 -3.7735,0.67223 -5.34887,1.49384 -1.57537,0.82161 -4.21431,1.51092 -5.86431,1.5318 -1.65,0.0209 -3.87351,0.69866 -4.94113,1.50616 -1.06762,0.80751 -3.09262,1.48251 -4.5,1.5 -1.40738,0.0175 -3.43238,0.6925 -4.5,1.5 -1.06762,0.80751 -2.86762,1.48289 -4,1.50085 -2.25347,0.0357 -12.20736,3.2825 -13.24519,4.32034 -0.35586,0.35585 -1.58451,0.66228 -2.73035,0.68094 -1.14583,0.0187 -3.88333,0.90339 -6.08333,1.96607 -2.2,1.06268 -4.98594,1.94741 -6.19098,1.96607 -1.20504,0.0187 -2.42867,0.41851 -2.71918,0.88856 -0.2905,0.47005 -3.57956,1.87272 -7.30901,3.11704 -3.72946,1.24433 -7.49126,2.88474 -8.35957,3.64537 -0.86831,0.76063 -2.33081,1.38296 -3.25,1.38296 -0.91919,0 -1.67126,0.46412 -1.67126,1.03138 0,0.56727 -0.71428,1.30549 -1.5873,1.64049 -3.02286,1.15998 -30.9333,17.53445 -35.66501,20.92391 -2.61378,1.87232 -5.08878,3.43671 -5.5,3.47642 -0.41123,0.0397 -2.02774,1.61268 -3.59224,3.49549 -3.31802,3.99309 -4.61741,10.56829 -2.57488,13.02939 0.73774,0.88893 1.80992,2.5561 2.38263,3.70483 1.15637,2.31945 5.84299,5.32575 11.39413,7.30893 4.36671,1.56004 15.10753,1.75321 23.52737,0.42313 z M 444.5,166.34766 c -0.33992,-0.55 -1.68992,-1 -3,-1 -1.31008,0 -2.66008,0.45 -3,1 -0.36852,0.59628 0.84262,1 3,1 2.15738,0 3.36852,-0.40372 3,-1 z m 64.21046,-5.11046 c 0.67758,-0.67758 7.09009,-1.27256 16.45,-1.52629 8.43675,-0.22871 17.81454,-0.85276 20.83954,-1.38677 3.025,-0.53402 12.42682,-1.43538 20.89293,-2.00303 8.46611,-0.56765 15.69261,-1.2173 16.05889,-1.44367 0.36628,-0.22638 6.83762,-0.87683 14.38076,-1.44547 19.25452,-1.45148 27.20531,-2.46857 58.91988,-7.53721 11.38786,-1.82001 20.38331,-3.20185 32.74754,-5.03052 12.1294,-1.79393 31.78225,-5.43355 54,-10.00057 9.625,-1.97848 19.975,-4.07575 23,-4.66059 3.025,-0.58484 6.91801,-1.69156 8.65113,-2.45938 1.73312,-0.76782 3.83415,-1.39604 4.66896,-1.39604 0.83481,0 3.0168,-0.75315 4.84887,-1.67366 1.83207,-0.92052 4.52547,-2.27052 5.98533,-3 1.45986,-0.72949 3.5906,-1.32634 4.73498,-1.32634 2.43734,0 10.9462,-5.04856 15.45938,-9.17252 2.75775,-2.51992 3.1422,-3.50217 3.07808,-7.864341 -0.0601,-4.08847 -0.59953,-5.53704 -3,-8.05618 -2.90811,-3.05188 -2.9808,-3.06836 -11.42673,-2.59152 -4.675,0.26394 -12.55,1.23253 -17.5,2.15243 -4.95,0.9199 -12.375,2.28984 -16.5,3.04433 -8.33116,1.52382 -14.26095,2.95843 -21,5.08061 -2.475,0.7794 -6.3225,1.414861 -8.55,1.412141 -2.2275,-0.003 -4.51196,0.45701 -5.07658,1.02163 -0.56461,0.56461 -3.46711,1.30146 -6.45,1.63743 -2.98288,0.33598 -5.90853,0.98989 -6.50144,1.45314 -0.59291,0.46325 -4.06491,1.26527 -7.71557,1.78227 -3.65066,0.51699 -7.12846,1.24339 -7.72846,1.61421 -0.59999,0.37081 -3.42798,1.06077 -6.28442,1.53323 -2.85644,0.47246 -8.34353,1.58734 -12.19353,2.47751 -3.85,0.89017 -10.15,2.25215 -14,3.02662 -14.3988,2.89648 -20.00817,4.11762 -40.5,8.81666 -3.025,0.69367 -6.76679,1.79472 -8.3151,2.44678 -1.5483,0.65207 -3.63085,1.18557 -4.62788,1.18557 -0.99702,0 -3.42827,0.675 -5.40278,1.5 -1.9745,0.825 -4.90302,1.5 -6.50781,1.5 -1.6048,0 -4.20675,0.67223 -5.78212,1.49384 -1.57537,0.82161 -3.63064,1.49661 -4.56726,1.5 -0.93662,0.003 -2.73662,0.42374 -4,0.93413 -1.26338,0.51038 -5.89705,1.68132 -10.29705,2.6021 -4.4,0.92078 -9.35,2.13093 -11,2.68923 -1.65,0.5583 -5.925,1.61442 -9.5,2.34692 -3.575,0.73251 -8.975,1.84463 -12,2.47138 -3.025,0.62675 -5.95,1.49881 -6.5,1.93791 -0.55,0.4391 -3.025,1.13064 -5.5,1.53677 -2.475,0.40613 -5.38763,1.357 -6.47251,2.11306 -1.08487,0.75607 -3.17094,1.37466 -4.63569,1.37466 -1.46475,0 -3.95212,0.67223 -5.52749,1.49384 -1.57537,0.82161 -3.98931,1.51092 -5.36431,1.5318 -1.375,0.0209 -3.37351,0.69866 -4.44113,1.50616 -1.06762,0.80751 -3.65512,1.4682 -5.75,1.4682 -4.30988,0 -4.84477,1.16102 -1.58636,3.4433 2.60147,1.82214 5.91461,2.01958 7.48795,0.44624 z M 449.25,88.685379 c -0.6875,-0.27741 -1.8125,-0.27741 -2.5,0 -0.6875,0.27741 -0.125,0.50439 1.25,0.50439 1.375,0 1.9375,-0.22698 1.25,-0.50439 z M 106.20758,153.09766 c -2.00155,-2.41195 1.56513,-7.53853 13.71491,-19.71319 C 126.56512,126.72823 132,120.94696 132,120.53718 c 0,-0.40977 0.7875,-1.43696 1.75,-2.28263 0.9625,-0.84568 4.225,-4.37687 7.25,-7.8471 3.025,-3.47022 6.37235,-7.15331 7.43856,-8.18464 1.78051,-1.72227 1.79507,-1.87515 0.17857,-1.87515 -0.96799,0 -2.38723,0.5625 -3.15385,1.25 -3.20559,2.87473 -5.77807,4.45058 -16.52084,10.12038 -3.60666,1.90352 -7.14926,4.17389 -7.87244,5.04528 -0.72319,0.87139 -2.38479,1.58434 -3.69244,1.58434 -1.30766,0 -2.37756,0.41968 -2.37756,0.93261 0,0.51294 -0.97793,1.243 -2.17319,1.62236 -1.19525,0.37936 -2.65775,1.10825 -3.25,1.61976 -1.54232,1.33207 -10.84448,6.29502 -19.57681,10.44475 -7.1834,3.41366 -18.59235,7.47316 -24.89042,8.85645 -1.63426,0.35895 -3.50758,1.2987 -4.16293,2.08835 -0.65534,0.78965 -2.27556,1.43572 -3.60048,1.43572 -1.32492,0 -2.66796,0.675 -2.98454,1.5 -0.81816,2.13207 -2.68061,1.85822 -5.10078,-0.75 -2.00243,-2.15802 -2.03271,-2.55659 -0.74066,-9.75 2.09971,-11.69005 3.16885,-14 6.47981,-14 4.06066,0 5.44905,4.30276 2.92052,9.05097 -1.01018,1.89697 -1.85555,4.61622 -1.8786,6.04278 -0.0409,2.53023 0.10229,2.58768 5.84734,2.34578 6.06878,-0.25553 9.01954,-1.3865 21.61074,-8.28302 3.85,-2.10875 9.25,-5.05578 12,-6.54896 2.75,-1.49318 5.675,-3.10859 6.5,-3.58981 0.825,-0.48121 4.91628,-2.87914 9.09173,-5.32872 4.17546,-2.44958 8.56296,-4.76203 9.75,-5.13879 1.18705,-0.37675 2.15827,-1.10468 2.15827,-1.61762 0,-0.51293 0.50576,-0.93261 1.12391,-0.93261 0.61814,0 3.71665,-1.6875 6.88557,-3.75 5.26066,-3.42392 11.13789,-6.917981 19.27235,-11.457551 9.29258,-5.18589 34.10759,-22.835064 43.71817,-31.093668 10.76288,-9.248805 24.30402,-17.698782 28.36241,-17.698782 5.21392,0 5.20583,5.044752 -0.0137,8.558193 -3.74965,2.524003 -6.50626,4.20041 -8.34869,5.077174 -0.825,0.392596 -1.85986,1.310246 -2.29969,2.039222 -0.43985,0.728976 -1.6292,1.325411 -2.64303,1.325411 -1.01383,0 -2.10234,0.675 -2.41893,1.5 -0.31658,0.825 -1.0739,1.5 -1.68294,1.5 -0.60904,0 -3.73898,2.025 -6.95543,4.5 -3.21645,2.475 -6.29477,4.5 -6.84071,4.5 -0.54594,0 -1.14262,0.3375 -1.32596,0.75 -0.18333,0.4125 -3.00355,2.55 -6.26716,4.75 -3.2636,2.2 -7.7636,5.68491 -10,7.74425 -2.23639,2.05933 -4.74117,3.9816 -5.56617,4.27171 -0.825,0.29011 -3.075,2.34991 -5,4.57734 -1.925,2.22743 -7.2125,7.896881 -11.75,12.598771 -4.5375,4.7019 -8.25,8.94468 -8.25,9.42842 0,0.48373 -0.675,0.87951 -1.5,0.87951 -0.825,0 -1.5,0.58131 -1.5,1.29179 0,0.71049 -2.025,3.27918 -4.5,5.70821 -2.475,2.42903 -4.5,4.99772 -4.5,5.70821 0,1.67835 3.43996,1.67152 4.83517,-0.01 0.59403,-0.71576 4.58663,-3.03854 8.87244,-5.16172 4.28582,-2.12319 9.13305,-4.80006 10.77165,-5.94861 4.08891,-2.86609 6.46427,-4.27106 10.27074,-6.07495 1.7875,-0.84709 3.25,-1.95114 3.25,-2.45344 0,-0.5023 2.45864,-2.03888 5.46364,-3.41461 C 181.29228,104.86668 194,96.706169 194,95.447289 c 0,-0.5174 1.2375,-1.23869 2.75,-1.60288 1.5125,-0.36419 4.775,-2.19329 7.25,-4.06467 2.475,-1.87137 7.2,-4.82151 10.5,-6.55585 3.3,-1.73435 9.51056,-5.543 13.80124,-8.46367 4.29067,-2.92067 8.67817,-5.588639 9.75,-5.928821 C 239.12306,68.491215 240,67.804764 240,67.305951 c 0,-1.348649 5.23482,-3.665243 7.25,-3.208384 2.64243,0.599063 2.27709,5.098536 -0.5,6.157855 -1.2375,0.472047 -5.44373,3.723407 -9.34717,7.225247 -3.90344,3.50185 -9.42982,8.39199 -12.28083,10.86699 -2.85101,2.475 -8.96259,8.2125 -13.58129,12.750001 -4.61869,4.5375 -8.62302,8.25 -8.89851,8.25 -0.27549,0 -3.33831,2.7 -6.80627,6 -3.46796,3.3 -6.64976,6 -7.07066,6 -0.4209,0 -0.76527,0.675 -0.76527,1.5 0,0.825 -0.75,1.5 -1.66667,1.5 -0.91666,0 -1.36935,0.29731 -1.00597,0.66069 0.7654,0.76541 7.67264,-2.73482 7.67264,-3.88809 0,-0.42493 0.71652,-0.7726 1.59227,-0.7726 0.87575,0 2.73644,-0.9 4.13486,-2 1.39842,-1.1 3.1194,-2 3.8244,-2 0.70499,0 1.4318,-0.36123 1.61514,-0.80274 0.37762,-0.90938 12.21084,-8.19726 13.30977,-8.19726 0.39315,0 2.04947,-0.95036 3.68072,-2.11191 1.63125,-1.16155 5.05984,-3.22526 7.61909,-4.58603 2.55926,-1.360771 6.30883,-3.785411 8.33238,-5.388091 2.02355,-1.60269 3.97437,-2.91397 4.33517,-2.91397 0.3608,0 5.07784,-2.925 10.48233,-6.5 5.40448,-3.575 10.12584,-6.5 10.49191,-6.5 0.36607,0 1.63162,-0.9 2.81233,-2 3.64677,-3.39748 8.76963,-2.08727 8.76963,2.2429 0,1.81433 -24.33262,26.757101 -26.10257,26.757101 -0.49358,0 -0.89743,0.44143 -0.89743,0.98095 0,0.53952 -1.125,1.2633 -2.5,1.60841 -1.375,0.3451 -2.5,1.02867 -2.5,1.51905 0,1.46177 4.01749,1.00959 4.60374,-0.51816 0.29754,-0.77537 1.63341,-1.68394 2.96862,-2.01905 1.3352,-0.33512 2.42764,-1.05073 2.42764,-1.59025 0,-0.53952 0.63242,-0.98095 1.40539,-0.98095 0.77296,0 3.29054,-1.575 5.59461,-3.5 2.30407,-1.925001 4.80849,-3.500001 5.56538,-3.500001 1.22979,0 10.17639,-5.56704 11.43462,-7.11522 0.275,-0.33837 1.62327,-0.96635 2.99616,-1.39552 1.37289,-0.42916 2.94789,-1.35554 3.5,-2.05863 1.04109,-1.32576 3.81774,-3.00366 14.00123,-8.46078 3.29856,-1.76764 7.07175,-4.05897 8.38486,-5.09187 1.31311,-1.03289 2.83999,-1.87798 3.39308,-1.87798 1.03187,0 9.82684,-4.099584 10.72467,-4.999074 0.275,-0.275509 2.74201,-1.625926 5.48225,-3.000926 2.74023,-1.375 5.58488,-3.0625 6.32143,-3.75 0.73655,-0.6875 1.8341,-1.25 2.43901,-1.25 0.6049,0 1.88504,-0.710605 2.84474,-1.579122 1.65248,-1.495476 1.61692,-1.767719 -0.67126,-5.139547 C 334.08728,50.670756 333,48.321361 333,47.408112 c 0,-0.913249 -0.41054,-2.087953 -0.9123,-2.610453 -0.50177,-0.5225 -2.033,-3.732366 -3.40274,-7.133036 -2.30144,-5.713838 -2.36501,-6.290411 -0.83769,-7.598001 3.56097,-3.048679 4.98275,-2.783449 7.86958,1.46805 1.53073,2.254341 4.0478,5.317696 5.59349,6.807456 l 2.81034,2.708655 -2.47612,2.942702 c -2.03242,2.415403 -2.34969,3.560849 -1.77058,6.3924 0.78563,3.841287 3.2537,4.982102 5.95042,2.750462 0.92158,-0.762639 4.1506,-2.434557 7.1756,-3.715372 3.025,-1.280814 12.25994,-5.64628 20.52209,-9.701035 8.26214,-4.054754 15.35911,-7.372281 15.77104,-7.372281 0.41192,0 3.77698,-1.406661 7.47791,-3.125913 3.70093,-1.719253 7.62896,-3.491753 8.72896,-3.938893 15.89178,-6.45989 27.57911,-11.29338 30,-12.407 1.65,-0.759 4.8,-2.11878 7,-3.0217294 2.2,-0.90295 4.9,-2.06411 6,-2.58036 3.84873,-1.80629 16.5964,-4.71365 18.49295,-4.21769 4.50827,1.17893 5.61551,8.3533994 1.53107,9.9207394 -0.83821,0.32165 -1.53322,1.32418 -1.54447,2.22783 -0.0206,1.65699 -7.13635,6.51836 -15.78972,10.78733 -2.57941,1.27249 -5.58983,2.84405 -6.68983,3.492353 -3.75754,2.214555 -5.00046,2.876243 -6.5,3.460375 -0.825,0.321372 -2.51182,1.069186 -3.74849,1.661809 -1.23667,0.592623 -2.54917,0.776818 -2.91667,0.409322 -0.3675,-0.367495 0.0818,-0.668173 0.99849,-0.668173 0.91667,0 1.68415,-0.5625 1.70552,-1.25 0.0214,-0.6875 2.27137,-2.33686 5,-3.665243 C 441.76748,28.104033 444,26.690313 444,26.290823 c 0,-0.39949 1.08734,-0.99925 2.41632,-1.33281 3.8788,-0.97351 17.00594,-13.11811 15.97771,-14.78181 -0.78405,-1.2686194 -4.58833,-0.9757094 -7.57667,0.58337 -1.47545,0.76977 -4.06295,1.70275 -5.75,2.07329 -1.68705,0.37054 -3.06736,1.08263 -3.06736,1.58243 0,0.4998 -1.8,1.19656 -4,1.54836 -2.2,0.35179 -4,0.94551 -4,1.31937 0,0.37385 -1.9125,1.50255 -4.25,2.50821 -2.3375,1.00566 -6.13781,2.66726 -8.44514,3.69245 -2.30732,1.02519 -4.86826,1.86398 -5.69098,1.86398 -0.82271,0 -1.73271,0.38325 -2.02221,0.85167 -0.2895,0.46842 -2.67855,1.65598 -5.30901,2.63902 -6.31373,2.35955 -16.86651,7.035991 -21.48078,9.519161 -2.03396,1.09458 -4.57332,1.990145 -5.64301,1.990145 -1.06969,0 -2.20391,0.675 -2.5205,1.5 -0.31658,0.825 -1.46317,1.5 -2.54797,1.5 -1.0848,0 -2.21967,0.400149 -2.52193,0.889221 -0.30227,0.489071 -1.73318,1.186288 -3.17982,1.54937 -1.44664,0.363083 -3.28303,1.312934 -4.08088,2.11078 -0.79784,0.797846 -2.26338,1.450629 -3.25675,1.450629 -0.99337,0 -2.36633,0.675 -3.05102,1.5 -0.68469,0.825 -2.03469,1.5 -3,1.5 -0.96531,0 -2.31531,0.675 -3,1.5 -0.68469,0.825 -1.87373,1.5 -2.64232,1.5 -0.76858,0 -3.07598,1.059259 -5.12755,2.353909 -2.05157,1.29465 -4.78903,2.689703 -6.08325,3.100117 -1.29422,0.410415 -3.94452,1.826156 -5.88955,3.146091 -1.94503,1.319936 -3.98684,2.399883 -4.53735,2.399883 -1.42001,0 -9.96134,4.25534 -11.54141,5.75 -0.72678,0.6875 -2.15178,1.25 -3.16667,1.25 -1.01488,0 -1.99523,0.36123 -2.17857,0.80274 -0.33672,0.8109 -12.15312,8.19726 -13.11365,8.19726 -0.28529,0 -2.80089,1.5358 -5.59024,3.41289 -2.78935,1.87709 -6.75522,3.96856 -8.81304,4.6477 -2.05783,0.67915 -5.51338,2.51835 -7.67899,4.08711 -2.16562,1.56877 -4.54497,2.8523 -5.28745,2.8523 -0.74248,0 -1.34996,0.675 -1.34996,1.5 0,0.825 -0.49774,1.500001 -1.1061,1.500001 -0.60835,0 -2.81061,1.35 -4.8939,3 -2.08329,1.65 -4.43211,3 -5.21959,3 -0.78748,0 -2.48866,1.125 -3.78041,2.5 -1.29175,1.375 -2.87633,2.5 -3.5213,2.5 -0.64498,0 -2.21039,0.9 -3.4787,2 -1.26831,1.1 -2.91217,2 -3.65301,2 -0.74084,0 -1.34699,0.41968 -1.34699,0.93261 0,0.51294 -0.97793,1.243 -2.17319,1.62236 -2.19428,0.69644 -3.38662,1.50793 -6.89849,4.69503 -1.06057,0.9625 -2.22027,1.75 -2.57709,1.75 -0.35683,0 -3.10852,2.025 -6.11488,4.5 -3.00636,2.475 -6.03432,4.5 -6.72879,4.5 -0.69447,0 -1.83288,0.68706 -2.5298,1.5268 -0.69693,0.83974 -3.11453,2.78775 -5.37245,4.32891 -2.25792,1.54116 -5.85758,4.00544 -7.99925,5.47618 -2.98815,2.05204 -4.20939,2.41228 -5.25,1.54865 -3.00274,-2.49205 -1.44221,-5.59601 6.80209,-13.52973 4.48698,-4.31795 10.22999,-9.87581 12.76225,-12.35081 2.53226,-2.475 6.39859,-5.82621 8.59185,-7.44714 2.19326,-1.62092 4.21275,-3.19872 4.48775,-3.50622 0.275,-0.3075 3.40929,-3.03128 6.96508,-6.05286 6.93005,-5.888881 8.75375,-7.608871 10.90736,-10.287051 2.23244,-2.77619 -0.88091,-2.18145 -4.07252,0.77797 -1.4738,1.36659 -4.3942,3.42089 -6.48978,4.56512 -2.09558,1.14423 -6.51014,3.848101 -9.81014,6.008601 -3.3,2.1605 -6.675,4.23196 -7.5,4.60324 -0.825,0.37128 -3.38108,1.94929 -5.68018,3.5067 -2.29909,1.5574 -4.83845,2.83164 -5.64301,2.83164 -0.80456,0 -1.72185,0.675 -2.03844,1.5 -0.31658,0.825 -1.71472,1.5 -3.10699,1.5 -1.39226,0 -2.53138,0.40986 -2.53138,0.91079 0,0.50094 -2.025,1.89108 -4.5,3.08921 -2.475,1.19813 -4.5,2.55795 -4.5,3.02182 0,0.46387 -1.0125,1.15652 -2.25,1.53921 -1.2375,0.3827 -5.19826,2.66303 -8.80168,5.06739 -3.60343,2.40437 -7.13867,4.37158 -7.8561,4.37158 -1.5147,0 -8.6442,5.42893 -11.6105,8.84109 -2.01718,2.32039 -2.05601,2.32422 -4.39157,0.43299 -2.05168,-1.66135 -2.19933,-2.20155 -1.14184,-4.1775 0.66801,-1.24818 5.04137,-5.94303 9.71859,-10.433 4.67722,-4.48997 12.46342,-11.98858 17.30267,-16.66358 4.83924,-4.675 11.74988,-10.975 15.35697,-14 3.60708,-3.025001 6.58424,-6.062501 6.6159,-6.750001 0.0317,-0.6875 0.84506,-1.28553 1.80756,-1.32895 0.9625,-0.0434 1.23979,-0.28849 0.6162,-0.5446 -1.30446,-0.53574 -4.7488,1.36726 -13.34581,7.37355 -3.34575,2.337501 -6.51905,4.250001 -7.05178,4.250001 -0.53274,0 -0.96861,0.3634 -0.96861,0.80755 0,0.87248 -6.95783,4.19245 -8.78633,4.19245 -0.61286,0 -1.47415,0.5625 -1.91398,1.25 -1.20556,1.88442 -7.02223,5.75 -8.65221,5.75 -0.78843,0 -1.69252,0.675 -2.00911,1.5 -0.31658,0.825 -1.46317,1.5 -2.54797,1.5 -1.0848,0 -2.23796,0.42974 -2.56257,0.95498 -0.95634,1.54738 -22.17442,14.04502 -23.84519,14.04502 -0.84105,0 -2.80122,1.06575 -4.35591,2.36833 -2.43879,2.0433 -11.2408,6.63167 -12.72173,6.63167 -1.43891,0 -9.7706,6.44585 -10.75898,8.32373 -1.95363,3.71183 -4.72966,4.72643 -6.63844,2.42627 z M 231,121.44128 c 0,-0.49851 -0.9,-0.67103 -2,-0.38337 -1.1,0.28766 -2,0.69553 -2,0.90638 0,0.21085 0.9,0.38337 2,0.38337 1.1,0 2,-0.40787 2,-0.90638 z m 4,-2.5346 c 0,-1.05548 -1.91911,-1.49891 -2.48992,-0.57533 -0.34546,0.55897 0.0734,1.01631 0.9309,1.01631 0.85746,0 1.55902,-0.19844 1.55902,-0.44098 z m 2.5,-2.55902 c 0.33992,-0.55 -0.11008,-1 -1,-1 -0.88992,0 -1.33992,0.45 -1,1 0.33992,0.55 0.78992,1 1,1 0.21008,0 0.66008,-0.45 1,-1 z m 4.5,-3.60699 c 0,-0.21615 -0.675,-0.39301 -1.5,-0.39301 -0.825,0 -1.5,0.43588 -1.5,0.96862 0,0.53273 0.675,0.70959 1.5,0.39301 0.825,-0.31659 1.5,-0.75246 1.5,-0.96862 z m 16,-24.009641 c 0,-0.21085 -0.9,-0.38337 -2,-0.38337 -1.1,0 -2,0.40787 -2,0.90638 0,0.49851 0.9,0.67103 2,0.38337 1.1,-0.28766 2,-0.69553 2,-0.90638 z m -8.20301,55.936351 c -5.42676,-1.42845 -1.09175,-10.31039 10.76974,-22.06597 4.5763,-4.53544 8.91173,-9.48544 9.63429,-11 0.87816,-1.84069 2.225,-2.85885 4.06205,-3.07072 5.96979,-0.68852 4.27882,6.29898 -3.12398,12.90901 -2.5515,2.27826 -6.32659,5.67002 -8.38909,7.53725 -2.0625,1.86723 -3.75,4.2895 -3.75,5.38283 0,1.09334 0.18803,1.98788 0.41784,1.98788 1.33891,0 11.21465,-5.53018 11.88185,-6.65355 0.43983,-0.74055 1.98583,-1.34645 3.43555,-1.34645 1.44972,0 3.56486,-0.83224 4.70031,-1.84942 1.87548,-1.68013 21.97868,-13.86494 25.56445,-15.49495 0.825,-0.37502 3.75,-1.95777 6.5,-3.51721 2.75,-1.55944 7.25,-4.06763 10,-5.57375 2.75,-1.50612 5.929,-3.599311 7.06445,-4.651531 1.13545,-1.05223 2.32221,-1.91314 2.63725,-1.91314 0.31504,0 3.16932,-2.475 6.34285,-5.5 3.17352,-3.025 6.05477,-5.5 6.40277,-5.5 0.348,0 2.62171,-1.8 5.05268,-4 2.43097,-2.2 4.77417,-4 5.20709,-4 0.43293,0 2.47594,-1.49996 4.54003,-3.33325 4.54572,-4.03743 6.0851,-4.652194 8.96675,-3.580937 1.93533,0.719461 2.08781,1.174747 1.21192,3.618597 -1.15994,3.2364 -5.83022,8.6612 -8.25887,9.59316 -0.9168,0.35181 -1.66692,1.028 -1.66692,1.50263 0,0.8292 -9.16725,7.1998 -10.36046,7.1998 -1.40588,0 -10.53311,6.89936 -14.63954,11.066161 -4.75349,4.82338 -6.3931,7.01919 -7.97764,10.68384 -0.53507,1.2375 -1.434,2.25 -1.99761,2.25 -0.56361,0 -1.02475,0.6375 -1.02475,1.41667 0,0.77916 -0.3375,1.56666 -0.75,1.75 -0.98751,0.43889 -4.7117,5.86708 -5.52386,8.0513 -0.90203,2.42593 1.06321,3.28264 3.16561,1.37999 0.97115,-0.87888 2.41334,-1.59796 3.20486,-1.59796 0.79151,0 3.00608,-1.06465 4.92126,-2.36588 1.91517,-1.30124 7.53213,-4.35907 12.48213,-6.79518 9.67222,-4.76012 17.19905,-8.82945 22,-11.89418 1.65,-1.05328 3.9,-2.38078 5,-2.94999 1.1,-0.56921 3.83792,-2.26339 6.08428,-3.764851 2.24635,-1.50146 6.2544,-4.07992 8.90679,-5.72992 2.65238,-1.65 5.52696,-3.7875 6.38796,-4.75 0.861,-0.9625 2.25294,-1.75051 3.09321,-1.75112 0.84027,-6.2e-4 2.72768,-1.23812 4.19425,-2.75 21.22089,-21.87656 36.31879,-35.24888 39.79742,-35.24888 0.40481,0 2.52209,-1.293827 4.70507,-2.875172 2.18298,-1.581344 4.9505,-3.186669 6.15004,-3.567387 C 448.01856,41.524381 449,40.804455 449,40.305265 c 0,-0.499191 2.0218,-1.828655 4.49289,-2.954366 2.47109,-1.125711 6.76589,-3.386958 9.544,-5.024993 2.77812,-1.638036 5.65194,-2.978247 6.38627,-2.978247 0.73434,0 3.8817,-1.165846 6.99416,-2.590776 6.26767,-2.86944 7.65828,-2.49972 9.40098,2.499386 0.76891,2.205692 0.5713,3.427694 -0.94038,5.815226 -1.79763,2.839156 -12.89066,11.276164 -14.82598,11.276164 -0.4869,0 -1.03527,0.3375 -1.21861,0.75 -0.60205,1.354624 -11.1949,7.855468 -18.33333,11.251184 -3.85,1.831427 -8.35,4.269011 -10,5.416853 -4.82437,3.356128 -9.75221,6.171158 -20.75,11.853443 -2.0625,1.06564 -3.75,2.30036 -3.75,2.74382 0,0.44346 -2.025,1.78657 -4.5,2.9847 -2.475,1.19813 -4.5,2.58827 -4.5,3.08921 0,0.50093 -0.675,0.91079 -1.5,0.91079 -0.825,0 -1.5,0.41796 -1.5,0.9288 0,0.51084 -1.60642,2.6321 -3.56983,4.71392 -1.96341,2.08181 -4.31043,5.03886 -5.21561,6.5712 -0.90517,1.53234 -1.99875,2.786081 -2.43017,2.786081 -0.43141,0 -0.78439,0.6375 -0.78439,1.41667 0,0.77916 -0.3375,1.56666 -0.75,1.75 -0.4125,0.18333 -3,3.41804 -5.75,7.18823 -2.75,3.7702 -5.7875,7.7077 -6.75,8.75 -0.9625,1.04231 -1.75,2.16162 -1.75,2.48737 0,0.32575 -0.89387,1.72864 -1.98637,3.11754 -1.91279,2.43171 -1.90101,4.29019 0.0272,4.29019 1.36027,0 11.53761,-10.51382 18.07448,-18.67205 2.65478,-3.31324 3.88469,-3.39568 3.88469,-0.26037 0,2.30571 -8.08303,12.98704 -15.30478,20.22454 C 372.17214,140.18362 363,141.87795 363,134.09325 c 0,-2.82282 3.45514,-9.84199 5.20741,-10.57892 0.43592,-0.18334 0.79259,-0.76406 0.79259,-1.2905 0,-0.8281 3.56041,-6.43658 5,-7.87617 0.275,-0.275 1.38641,-2.23958 2.46979,-4.36573 1.08339,-2.12615 2.54589,-4.08679 3.25,-4.35699 0.70412,-0.27019 1.28021,-0.956 1.28021,-1.52403 0,-0.56802 0.78679,-1.60808 1.74843,-2.31125 0.96163,-0.70316 1.4061,-1.6208 0.9877,-2.039201 -0.4184,-0.4184 -2.08697,0.2198 -3.70794,1.418231 -1.62096,1.19844 -3.26749,2.17897 -3.65896,2.17897 -0.39146,0 -1.42218,0.62933 -2.29049,1.39852 -2.26342,2.00505 -8.9206,5.60148 -10.36861,5.60148 -0.67597,0 -1.7911,0.9 -2.47806,2 -0.68696,1.1 -2.1314,2 -3.20986,2 -1.07847,0 -5.77018,2.25 -10.42603,5 -4.65585,2.75 -8.94465,5 -9.53068,5 -0.58602,0 -1.0655,0.41968 -1.0655,0.93261 0,0.51294 -0.99151,1.24731 -2.20336,1.63193 -1.21185,0.38463 -2.81899,1.31495 -3.57143,2.06739 -0.75244,0.75244 -2.08799,1.36807 -2.9679,1.36807 -0.8799,0 -2.31026,0.6019 -3.17857,1.33756 -2.42851,2.05751 -13.04645,4.09473 -14.3818,2.75938 -2.8854,-2.8854 0.23691,-11.29132 8.11487,-21.84694 3.37871,-4.52711 0.93944,-4.30921 -6.4911,0.57984 -3.20139,2.10641 -7.39571,4.64534 -9.32071,5.64206 -1.925,0.99672 -4.175,2.20734 -5,2.69027 -0.825,0.48292 -2.85,1.5507 -4.5,2.37285 -3.5709,1.77927 -5.9616,3.23009 -10,6.06858 -1.65,1.15975 -4.125,2.4516 -5.5,2.87079 -1.375,0.4192 -3.175,1.31674 -4,1.99456 -1.87021,1.53654 -13.99378,7.53105 -15.23115,7.53105 -0.50144,0 -1.58671,0.675 -2.41171,1.5 -1.47957,1.47957 -3.22486,1.69765 -6.56015,0.81972 z M 424,67.347659 c 0,-1.252922 -1.06124,-1.252922 -3,0 -1.21296,0.783874 -1.06944,0.972305 0.75,0.984687 1.2375,0.0084 2.25,-0.434687 2.25,-0.984687 z m 7.58889,-4.5 c 1.80272,-1.375 3.60742,-2.5 4.01046,-2.5 0.40303,0 3.98176,-2.025 7.95274,-4.5 3.97097,-2.475 7.66614,-4.5 8.21149,-4.5 0.54534,0 1.55173,-0.675 2.23642,-1.5 0.68469,-0.825 1.86042,-1.5 2.61273,-1.5 0.75231,0 4.32565,-2.025 7.94076,-4.5 3.61511,-2.475 6.7877,-4.5 7.05021,-4.5 0.26251,0 1.80906,-0.984626 3.43679,-2.188058 3.26986,-2.417508 4.14578,-5.524548 1.20951,-4.290335 -0.9625,0.404572 -2.875,0.968198 -4.25,1.252504 -1.375,0.284305 -3.38763,1.126437 -4.47251,1.871404 -1.08487,0.744967 -2.65987,1.367004 -3.5,1.382305 -0.84012,0.0153 -3.29515,1.365301 -5.45563,3 -2.16048,1.634699 -4.26953,2.97218 -4.68679,2.97218 -1.00171,0 -22.06109,14.285119 -24.69315,16.75 -0.73413,0.6875 -1.7368,1.25 -2.22816,1.25 -0.49137,0 -1.37506,0.9 -1.96376,2 -0.91897,1.717109 -0.76049,2 1.12043,2 1.20493,0 3.66574,-1.125 5.46846,-2.5 z"
     id="path5081"
     inkscape:connector-curvature="0"
     sodipodi:nodetypes="cscccsssssccsssssscsssssssssssssssscssscscsssssssssssssssssssssssssssssssssssssssssssssssssssssscssssssssssssssssssssssssssssscsssssssssssssssssssssssssscssssssssscssssssccssssssssssssscssssssssssssssssssssssssssssscssscsccsssssssscscsssssssssssssssssssscssssccssssssssssssssssssssssssssssssssssssssssssssssssscssscccsccsssssscsssssssssssssscssssssssssssssssscsssssssssssssscsssssssssscsssssssssssssssssssssssssssssssssssssssssssssscssssscsssssssssscsssscsssssssssssssssssssssssssssssssssssssssssssssssssssssssssssscssssssssssssscsssssscsssssssssssssssssscssssssssssssscsssssssssssssssssssssssssssssssssssssssssssssssssccssssssssssssssssssssssssssssssssssssssssssssssssssssssssssssssssssssscsssssssssscsssssssssssscsssssssssssscssssssssscssscsssssssssssssssssssssssssssssscsssssssssssssssssssss" />
</svg>
