<svg version="1.1" id="Layer_1" xmlns="http://www.w3.org/2000/svg" xmlns:xlink="http://www.w3.org/1999/xlink" x="0px" y="0px"
	 width="100%" viewBox="0 0 830 137" enable-background="new 0 0 830 137" xml:space="preserve">
<path fill="#FDFDFD" opacity="1.000000" stroke="none" 
	d="
M630.000000,138.000000 
	C420.000000,138.000000 210.500000,138.000000 1.000000,138.000000 
	C1.000000,92.333336 1.000000,46.666668 1.000000,1.000000 
	C277.666656,1.000000 554.333313,1.000000 831.000000,1.000000 
	C831.000000,46.666668 831.000000,92.333336 831.000000,138.000000 
	C764.166687,138.000000 697.333313,138.000000 630.000000,138.000000 
M793.635498,129.328262 
	C793.761353,128.884415 793.887207,128.440567 794.216919,127.078537 
	C794.216919,98.497719 794.216919,69.916893 794.216919,40.892097 
	C804.492188,40.892097 814.080261,40.892097 823.814697,40.892097 
	C823.814697,34.391491 823.814697,28.342857 823.814697,22.204765 
	C797.296936,22.204765 771.095032,22.204765 744.823425,22.204765 
	C744.823425,28.594278 744.823425,34.645405 744.823425,41.091251 
	C754.481262,41.091251 763.749573,41.091251 773.560791,41.091251 
	C773.560791,70.716736 773.560791,99.945168 773.560791,129.368912 
	C780.375366,129.368912 786.640747,129.368912 793.635498,129.328262 
M303.849213,128.734390 
	C304.271545,128.943405 304.693878,129.152405 305.867645,129.655060 
	C311.816040,129.655060 317.764435,129.655060 324.256897,129.655060 
	C324.256897,115.229446 324.256897,101.328285 324.256897,87.407043 
	C333.906982,88.303719 342.986603,89.634850 352.095764,89.883583 
	C367.082611,90.292824 375.551300,83.455986 378.396210,68.728607 
	C379.551910,62.745903 380.021912,56.438835 379.567200,50.372044 
	C378.055786,30.205421 368.889801,21.986336 348.616241,21.891956 
	C335.120239,21.829126 321.623657,21.869738 308.127350,21.887295 
	C306.681519,21.889175 305.235870,22.046656 303.565277,22.145222 
	C303.565277,49.870148 303.544556,77.185204 303.578400,104.500198 
	C303.588104,112.320885 303.755768,120.141365 303.849213,128.734390 
M289.581421,80.500130 
	C289.581421,61.067501 289.581421,41.634872 289.581421,22.216755 
	C282.323517,22.216755 275.751007,22.216755 268.807434,22.216755 
	C268.807434,44.782207 268.807434,67.003387 268.807434,90.702927 
	C267.062775,88.066071 266.064819,86.652138 265.162476,85.179626 
	C252.982254,65.303345 240.837296,45.405365 228.599167,25.564823 
	C227.717041,24.134689 226.234634,22.133316 224.937317,22.059969 
	C218.527603,21.697575 212.086243,21.895018 205.577057,21.895018 
	C205.577057,58.104939 205.577057,93.665260 205.577057,129.470520 
	C212.476944,129.470520 219.050171,129.470520 226.247314,129.470520 
	C226.247314,107.075706 226.247314,84.944664 226.247314,61.522495 
	C227.680069,63.659763 228.344849,64.590691 228.947937,65.559990 
	C241.438995,85.635895 253.905502,105.727127 266.444611,125.772949 
	C267.361786,127.239220 268.731812,129.425720 269.997528,129.501434 
	C276.385712,129.883636 282.809113,129.677078 289.581146,129.677078 
	C289.581146,113.111115 289.581146,97.305634 289.581421,80.500130 
M582.256714,129.736252 
	C583.698547,129.635574 585.140320,129.534882 587.034912,129.402588 
	C587.034912,107.006004 587.034912,84.988724 587.034912,61.763760 
	C588.446716,63.895634 589.179626,64.944405 589.854187,66.029457 
	C602.249939,85.967979 614.619995,105.922539 627.067688,125.828590 
	C627.979370,127.286613 629.380798,129.425659 630.657959,129.501251 
	C637.045410,129.879242 643.467346,129.674255 649.797485,129.674255 
	C649.797485,93.335777 649.797485,57.768620 649.797485,22.180256 
	C642.882690,22.180256 636.306702,22.180256 629.033936,22.180256 
	C629.033936,44.591438 629.033936,66.704819 629.033936,88.818199 
	C626.898010,86.978790 625.652954,85.036285 624.447388,83.069572 
	C612.700684,63.906570 600.982361,44.726051 589.174377,25.600878 
	C588.290405,24.169123 586.834412,22.139864 585.549194,22.066984 
	C579.135132,21.703283 572.689331,21.900690 566.152954,21.900690 
	C566.152954,58.096363 566.152954,93.661697 566.152954,129.736710 
	C571.386719,129.736710 576.346924,129.736710 582.256714,129.736252 
M425.910980,88.349945 
	C429.548248,88.264198 431.324707,90.139343 432.703186,93.497147 
	C437.189423,104.424744 442.020844,115.212921 446.877319,125.983543 
	C447.532959,127.437599 449.041412,129.493652 450.240417,129.553314 
	C457.123932,129.895721 464.033264,129.719925 471.835205,129.719925 
	C464.823853,115.117432 458.244781,101.415176 451.678009,87.738594 
	C462.579987,82.046669 466.181000,78.044754 467.506744,67.218452 
	C468.407928,59.858784 468.577576,52.179474 467.539856,44.860680 
	C465.428040,29.966167 456.455322,22.437225 441.268738,22.030144 
	C428.784149,21.695490 416.285004,21.903149 403.792297,21.875135 
	C400.011322,21.866655 396.230286,21.873823 392.243958,21.873823 
	C392.243958,58.006344 392.243958,93.567825 392.243958,129.433395 
	C399.044098,129.433395 405.600098,129.433395 412.898376,129.433395 
	C412.898376,115.166916 412.898376,101.157440 412.898376,86.959641 
	C417.455658,87.436806 421.257660,87.834900 425.910980,88.349945 
M98.809135,85.704880 
	C106.942116,100.341415 109.824715,116.434753 111.260086,132.736542 
	C115.786247,132.736542 119.701584,132.736542 123.932457,132.736542 
	C124.022919,130.769089 124.162231,129.142853 124.162872,127.516556 
	C124.174248,98.702507 123.674408,69.875984 124.401367,41.080338 
	C124.707748,28.944326 113.577049,18.373001 101.741600,18.675467 
	C74.277969,19.377333 46.784111,18.894424 19.302507,18.896271 
	C9.256266,18.896944 9.344945,18.897997 9.883769,28.965528 
	C10.030869,31.713989 11.036777,32.782356 13.747170,32.916054 
	C18.382677,33.144714 23.086777,33.230877 27.618546,34.113659 
	C59.001099,40.226963 82.650719,57.215172 98.809135,85.704880 
M552.999878,28.671612 
	C552.907654,27.227823 552.815430,25.784035 552.678101,23.634079 
	C535.582520,23.088448 518.791687,22.092670 502.006104,22.174160 
	C490.294342,22.231020 482.568420,29.747227 482.341553,41.271500 
	C481.882446,64.590912 481.978790,87.929611 482.335327,111.252869 
	C482.490204,121.384842 488.356873,127.662819 498.344360,129.384018 
	C502.722198,130.138474 507.302917,130.050491 511.772797,129.873199 
	C525.373535,129.333725 538.965210,128.564407 552.760193,127.874603 
	C552.760193,121.793976 552.760193,116.378723 552.760193,110.459206 
	C550.774902,110.459206 548.973816,110.458977 547.172668,110.459244 
	C535.174927,110.461014 523.177246,110.468910 511.179504,110.461334 
	C507.247375,110.458847 503.421783,109.759331 503.134247,104.964859 
	C502.769073,98.876022 503.045837,92.748680 503.045837,85.430969 
	C517.659424,85.430969 531.862610,85.430969 545.902344,85.430969 
	C545.902344,78.783287 545.902344,73.358200 545.902344,67.009682 
	C538.566162,67.009682 531.580933,67.009682 524.595703,67.009682 
	C517.492859,67.009682 510.390076,67.009682 502.876984,67.009682 
	C502.876984,62.448952 502.876984,59.146133 502.877045,55.843315 
	C502.877289,41.521111 502.877258,41.523438 517.209961,41.527760 
	C529.006104,41.531311 540.802307,41.528484 552.999695,41.528484 
	C552.999695,37.226810 552.999695,33.428654 552.999878,28.671612 
M665.118286,56.501869 
	C665.120178,73.157455 665.115356,89.813049 665.125732,106.468628 
	C665.136169,123.205261 672.581848,130.505188 689.423340,130.044632 
	C700.407532,129.744232 711.387512,129.243225 722.363403,128.708771 
	C726.797424,128.492859 731.215454,127.948257 735.656616,127.551826 
	C735.656616,121.687408 735.656616,116.300285 735.656616,110.466782 
	C732.840759,110.466782 730.359497,110.462402 727.878174,110.467537 
	C716.885986,110.490280 705.893738,110.547081 694.901672,110.522850 
	C691.170959,110.514618 686.754700,110.492561 686.294617,105.729233 
	C685.681335,99.379669 686.143127,92.926277 686.143127,85.467972 
	C700.691162,85.467972 714.764832,85.467972 728.989014,85.467972 
	C728.989014,78.986397 728.989014,73.574059 728.989014,67.761833 
	C714.536560,67.242157 700.338501,66.731628 685.875793,66.211586 
	C685.875793,60.087307 685.806396,54.605904 685.894775,49.127048 
	C685.988281,43.327244 687.591858,41.622936 693.361938,41.560768 
	C703.687195,41.449520 714.014587,41.529327 724.341064,41.529282 
	C728.119263,41.529263 731.897461,41.529278 735.714355,41.529278 
	C735.714355,35.406857 735.714355,29.976933 735.714355,23.573614 
	C718.208496,23.080954 700.939697,21.980934 683.699768,22.325943 
	C672.231262,22.555452 665.505737,30.840475 665.143738,42.512367 
	C665.009521,46.838707 665.119629,51.172626 665.118286,56.501869 
M169.254486,90.499939 
	C169.254486,103.424225 169.254486,116.348518 169.254486,129.746552 
	C173.159485,129.746552 176.449371,129.746552 179.739243,129.746552 
	C183.014252,129.746552 186.289261,129.746552 189.625946,129.746552 
	C189.625946,93.440544 189.625946,57.774582 189.625946,22.259274 
	C182.670410,22.259274 176.112717,22.259274 169.254593,22.259274 
	C169.254593,44.935169 169.254593,67.217552 169.254486,90.499939 
M34.955780,64.443336 
	C65.688126,76.751617 80.921883,100.153175 83.547874,133.101837 
	C86.936691,133.101837 90.231476,132.977463 93.512169,133.139145 
	C96.406174,133.281769 97.533836,132.002106 97.141670,129.285172 
	C96.148117,122.401741 95.898552,115.284264 93.915169,108.692558 
	C85.803284,81.732887 68.603416,62.393311 42.434681,52.040554 
	C33.500038,48.505867 23.438122,47.763702 13.837404,46.046780 
	C12.728194,45.848415 10.272889,47.468361 10.155156,48.450649 
	C9.711838,52.149429 9.977276,55.933159 9.977276,58.942940 
	C18.707651,60.809814 26.469231,62.469524 34.955780,64.443336 
M62.193123,111.458160 
	C51.198486,88.908669 26.407118,72.837860 9.946634,77.950089 
	C9.946634,79.975960 9.946634,82.120712 9.946634,84.265465 
	C9.946634,86.352242 9.946634,88.439018 9.946634,90.227661 
	C11.074655,90.629959 11.382595,90.833244 11.693037,90.837151 
	C31.216389,91.082138 51.269405,108.107887 52.214512,130.196579 
	C52.257141,131.192780 53.732243,132.871368 54.655479,132.954727 
	C58.244244,133.278778 61.879616,133.086731 65.652046,133.086731 
	C66.900978,125.349495 64.772026,118.743935 62.193123,111.458160 
M35.546932,121.203552 
	C30.264830,111.129982 22.019600,105.800346 10.678224,105.074234 
	C6.938262,123.186172 20.009466,136.229019 38.411442,132.238571 
	C37.550777,128.784836 36.694630,125.349205 35.546932,121.203552 
z"/>
<path fill="#555555" opacity="1.000000" stroke="none" 
	d="
M289.581299,81.000137 
	C289.581146,97.305634 289.581146,113.111115 289.581146,129.677078 
	C282.809113,129.677078 276.385712,129.883636 269.997528,129.501434 
	C268.731812,129.425720 267.361786,127.239220 266.444611,125.772949 
	C253.905502,105.727127 241.438995,85.635895 228.947937,65.559990 
	C228.344849,64.590691 227.680069,63.659763 226.247314,61.522495 
	C226.247314,84.944664 226.247314,107.075706 226.247314,129.470520 
	C219.050171,129.470520 212.476944,129.470520 205.577057,129.470520 
	C205.577057,93.665260 205.577057,58.104939 205.577057,21.895018 
	C212.086243,21.895018 218.527603,21.697575 224.937317,22.059969 
	C226.234634,22.133316 227.717041,24.134689 228.599167,25.564823 
	C240.837296,45.405365 252.982254,65.303345 265.162476,85.179626 
	C266.064819,86.652138 267.062775,88.066071 268.807434,90.702927 
	C268.807434,67.003387 268.807434,44.782207 268.807434,22.216755 
	C275.751007,22.216755 282.323517,22.216755 289.581421,22.216755 
	C289.581421,41.634872 289.581421,61.067501 289.581299,81.000137 
z"/>
<path fill="#535353" opacity="1.000000" stroke="none" 
	d="
M581.781860,129.736481 
	C576.346924,129.736710 571.386719,129.736710 566.152954,129.736710 
	C566.152954,93.661697 566.152954,58.096363 566.152954,21.900690 
	C572.689331,21.900690 579.135132,21.703283 585.549194,22.066984 
	C586.834412,22.139864 588.290405,24.169123 589.174377,25.600878 
	C600.982361,44.726051 612.700684,63.906570 624.447388,83.069572 
	C625.652954,85.036285 626.898010,86.978790 629.033936,88.818199 
	C629.033936,66.704819 629.033936,44.591438 629.033936,22.180256 
	C636.306702,22.180256 642.882690,22.180256 649.797485,22.180256 
	C649.797485,57.768620 649.797485,93.335777 649.797485,129.674255 
	C643.467346,129.674255 637.045410,129.879242 630.657959,129.501251 
	C629.380798,129.425659 627.979370,127.286613 627.067688,125.828590 
	C614.619995,105.922539 602.249939,85.967979 589.854187,66.029457 
	C589.179626,64.944405 588.446716,63.895634 587.034912,61.763760 
	C587.034912,84.988724 587.034912,107.006004 587.034912,129.402588 
	C585.140320,129.534882 583.698547,129.635574 581.781860,129.736481 
z"/>
<path fill="#535353" opacity="1.000000" stroke="none" 
	d="
M425.485321,88.291466 
	C421.257660,87.834900 417.455658,87.436806 412.898376,86.959641 
	C412.898376,101.157440 412.898376,115.166916 412.898376,129.433395 
	C405.600098,129.433395 399.044098,129.433395 392.243958,129.433395 
	C392.243958,93.567825 392.243958,58.006344 392.243958,21.873823 
	C396.230286,21.873823 400.011322,21.866655 403.792297,21.875135 
	C416.285004,21.903149 428.784149,21.695490 441.268738,22.030144 
	C456.455322,22.437225 465.428040,29.966167 467.539856,44.860680 
	C468.577576,52.179474 468.407928,59.858784 467.506744,67.218452 
	C466.181000,78.044754 462.579987,82.046669 451.678009,87.738594 
	C458.244781,101.415176 464.823853,115.117432 471.835205,129.719925 
	C464.033264,129.719925 457.123932,129.895721 450.240417,129.553314 
	C449.041412,129.493652 447.532959,127.437599 446.877319,125.983543 
	C442.020844,115.212921 437.189423,104.424744 432.703186,93.497147 
	C431.324707,90.139343 429.548248,88.264198 425.485321,88.291466 
M412.930145,69.079636 
	C414.326721,69.578056 415.710022,70.456802 417.122314,70.506233 
	C422.095337,70.680237 427.078339,70.555023 432.057526,70.569710 
	C445.519348,70.609406 448.737061,67.158508 447.672821,53.611248 
	C447.492096,51.310966 447.560638,48.593758 446.364136,46.865021 
	C444.629944,44.359459 441.984558,40.990887 439.488678,40.776657 
	C430.814789,40.032139 422.037811,40.489082 412.877380,40.489082 
	C412.877380,49.956806 412.877380,59.054657 412.930145,69.079636 
z"/>
<path fill="#8BCFE0" opacity="1.000000" stroke="none" 
	d="
M98.630432,85.380180 
	C82.650719,57.215172 59.001099,40.226963 27.618546,34.113659 
	C23.086777,33.230877 18.382677,33.144714 13.747170,32.916054 
	C11.036777,32.782356 10.030869,31.713989 9.883769,28.965528 
	C9.344945,18.897997 9.256266,18.896944 19.302507,18.896271 
	C46.784111,18.894424 74.277969,19.377333 101.741600,18.675467 
	C113.577049,18.373001 124.707748,28.944326 124.401367,41.080338 
	C123.674408,69.875984 124.174248,98.702507 124.162872,127.516556 
	C124.162231,129.142853 124.022919,130.769089 123.932457,132.736542 
	C119.701584,132.736542 115.786247,132.736542 111.260086,132.736542 
	C109.824715,116.434753 106.942116,100.341415 98.630432,85.380180 
z"/>
<path fill="#535353" opacity="1.000000" stroke="none" 
	d="
M552.999756,29.151052 
	C552.999695,33.428654 552.999695,37.226810 552.999695,41.528484 
	C540.802307,41.528484 529.006104,41.531311 517.209961,41.527760 
	C502.877258,41.523438 502.877289,41.521111 502.877045,55.843315 
	C502.876984,59.146133 502.876984,62.448952 502.876984,67.009682 
	C510.390076,67.009682 517.492859,67.009682 524.595703,67.009682 
	C531.580933,67.009682 538.566162,67.009682 545.902344,67.009682 
	C545.902344,73.358200 545.902344,78.783287 545.902344,85.430969 
	C531.862610,85.430969 517.659424,85.430969 503.045837,85.430969 
	C503.045837,92.748680 502.769073,98.876022 503.134247,104.964859 
	C503.421783,109.759331 507.247375,110.458847 511.179504,110.461334 
	C523.177246,110.468910 535.174927,110.461014 547.172668,110.459244 
	C548.973816,110.458977 550.774902,110.459206 552.760193,110.459206 
	C552.760193,116.378723 552.760193,121.793976 552.760193,127.874603 
	C538.965210,128.564407 525.373535,129.333725 511.772797,129.873199 
	C507.302917,130.050491 502.722198,130.138474 498.344360,129.384018 
	C488.356873,127.662819 482.490204,121.384842 482.335327,111.252869 
	C481.978790,87.929611 481.882446,64.590912 482.341553,41.271500 
	C482.568420,29.747227 490.294342,22.231020 502.006104,22.174160 
	C518.791687,22.092670 535.582520,23.088448 552.678101,23.634079 
	C552.815430,25.784035 552.907654,27.227823 552.999756,29.151052 
z"/>
<path fill="#535353" opacity="1.000000" stroke="none" 
	d="
M665.118286,56.002480 
	C665.119629,51.172626 665.009521,46.838707 665.143738,42.512367 
	C665.505737,30.840475 672.231262,22.555452 683.699768,22.325943 
	C700.939697,21.980934 718.208496,23.080954 735.714355,23.573614 
	C735.714355,29.976933 735.714355,35.406857 735.714355,41.529278 
	C731.897461,41.529278 728.119263,41.529263 724.341064,41.529282 
	C714.014587,41.529327 703.687195,41.449520 693.361938,41.560768 
	C687.591858,41.622936 685.988281,43.327244 685.894775,49.127048 
	C685.806396,54.605904 685.875793,60.087307 685.875793,66.211586 
	C700.338501,66.731628 714.536560,67.242157 728.989014,67.761833 
	C728.989014,73.574059 728.989014,78.986397 728.989014,85.467972 
	C714.764832,85.467972 700.691162,85.467972 686.143127,85.467972 
	C686.143127,92.926277 685.681335,99.379669 686.294617,105.729233 
	C686.754700,110.492561 691.170959,110.514618 694.901672,110.522850 
	C705.893738,110.547081 716.885986,110.490280 727.878174,110.467537 
	C730.359497,110.462402 732.840759,110.466782 735.656616,110.466782 
	C735.656616,116.300285 735.656616,121.687408 735.656616,127.551826 
	C731.215454,127.948257 726.797424,128.492859 722.363403,128.708771 
	C711.387512,129.243225 700.407532,129.744232 689.423340,130.044632 
	C672.581848,130.505188 665.136169,123.205261 665.125732,106.468628 
	C665.115356,89.813049 665.120178,73.157455 665.118286,56.002480 
z"/>
<path fill="#535353" opacity="1.000000" stroke="none" 
	d="
M303.851013,127.961945 
	C303.755768,120.141365 303.588104,112.320885 303.578400,104.500198 
	C303.544556,77.185204 303.565277,49.870148 303.565277,22.145222 
	C305.235870,22.046656 306.681519,21.889175 308.127350,21.887295 
	C321.623657,21.869738 335.120239,21.829126 348.616241,21.891956 
	C368.889801,21.986336 378.055786,30.205421 379.567200,50.372044 
	C380.021912,56.438835 379.551910,62.745903 378.396210,68.728607 
	C375.551300,83.455986 367.082611,90.292824 352.095764,89.883583 
	C342.986603,89.634850 333.906982,88.303719 324.256897,87.407043 
	C324.256897,101.328285 324.256897,115.229446 324.256897,129.655060 
	C317.764435,129.655060 311.816040,129.655060 305.355103,129.211609 
	C304.512054,128.499435 304.181519,128.230682 303.851013,127.961945 
M358.372803,61.618484 
	C358.251495,57.173553 358.899780,52.514740 357.744385,48.357170 
	C356.943787,45.476292 353.842194,41.360531 351.448669,41.130772 
	C342.504333,40.272186 333.428070,40.787502 324.312134,40.787502 
	C324.312134,51.028694 324.312134,60.954227 324.312134,71.521057 
	C331.915497,71.521057 339.341858,71.551163 346.767883,71.512535 
	C354.099304,71.474396 356.376556,69.640419 358.372803,61.618484 
z"/>
<path fill="#525252" opacity="1.000000" stroke="none" 
	d="
M792.906128,129.368927 
	C786.640747,129.368912 780.375366,129.368912 773.560791,129.368912 
	C773.560791,99.945168 773.560791,70.716736 773.560791,41.091251 
	C763.749573,41.091251 754.481262,41.091251 744.823425,41.091251 
	C744.823425,34.645405 744.823425,28.594278 744.823425,22.204765 
	C771.095032,22.204765 797.296936,22.204765 823.814697,22.204765 
	C823.814697,28.342857 823.814697,34.391491 823.814697,40.892097 
	C814.080261,40.892097 804.492188,40.892097 794.216919,40.892097 
	C794.216919,69.916893 794.216919,98.497719 793.857788,127.698242 
	C793.301147,128.668274 793.103638,129.018600 792.906128,129.368927 
z"/>
<path fill="#555555" opacity="1.000000" stroke="none" 
	d="
M169.254547,89.999939 
	C169.254593,67.217552 169.254593,44.935169 169.254593,22.259274 
	C176.112717,22.259274 182.670410,22.259274 189.625946,22.259274 
	C189.625946,57.774582 189.625946,93.440544 189.625946,129.746552 
	C186.289261,129.746552 183.014252,129.746552 179.739243,129.746552 
	C176.449371,129.746552 173.159485,129.746552 169.254486,129.746552 
	C169.254486,116.348518 169.254486,103.424225 169.254547,89.999939 
z"/>
<path fill="#8CCFDE" opacity="1.000000" stroke="none" 
	d="
M34.593292,64.286285 
	C26.469231,62.469524 18.707651,60.809814 9.977276,58.942940 
	C9.977276,55.933159 9.711838,52.149429 10.155156,48.450649 
	C10.272889,47.468361 12.728194,45.848415 13.837404,46.046780 
	C23.438122,47.763702 33.500038,48.505867 42.434681,52.040554 
	C68.603416,62.393311 85.803284,81.732887 93.915169,108.692558 
	C95.898552,115.284264 96.148117,122.401741 97.141670,129.285172 
	C97.533836,132.002106 96.406174,133.281769 93.512169,133.139145 
	C90.231476,132.977463 86.936691,133.101837 83.547874,133.101837 
	C80.921883,100.153175 65.688126,76.751617 34.593292,64.286285 
z"/>
<path fill="#8DCFDE" opacity="1.000000" stroke="none" 
	d="
M62.354988,111.807465 
	C64.772026,118.743935 66.900978,125.349495 65.652046,133.086731 
	C61.879616,133.086731 58.244244,133.278778 54.655479,132.954727 
	C53.732243,132.871368 52.257141,131.192780 52.214512,130.196579 
	C51.269405,108.107887 31.216389,91.082138 11.693037,90.837151 
	C11.382595,90.833244 11.074655,90.629959 9.946634,90.227661 
	C9.946634,88.439018 9.946634,86.352242 9.946634,84.265465 
	C9.946634,82.120712 9.946634,79.975960 9.946634,77.950089 
	C26.407118,72.837860 51.198486,88.908669 62.354988,111.807465 
z"/>
<path fill="#8DCFDE" opacity="1.000000" stroke="none" 
	d="
M35.692707,121.558563 
	C36.694630,125.349205 37.550777,128.784836 38.411442,132.238571 
	C20.009466,136.229019 6.938262,123.186172 10.678224,105.074234 
	C22.019600,105.800346 30.264830,111.129982 35.692707,121.558563 
z"/>
<path fill="#4A4A4A" opacity="1.000000" stroke="none" 
	d="
M303.850098,128.348175 
	C304.181519,128.230682 304.512054,128.499435 304.979370,129.064789 
	C304.693878,129.152405 304.271545,128.943405 303.850098,128.348175 
z"/>
<path fill="#4A4A4A" opacity="1.000000" stroke="none" 
	d="
M793.270813,129.348602 
	C793.103638,129.018600 793.301147,128.668274 793.755859,128.157333 
	C793.887207,128.440567 793.761353,128.884415 793.270813,129.348602 
z"/>
<path fill="#FAFAFA" opacity="1.000000" stroke="none" 
	d="
M412.903748,68.616074 
	C412.877380,59.054657 412.877380,49.956806 412.877380,40.489082 
	C422.037811,40.489082 430.814789,40.032139 439.488678,40.776657 
	C441.984558,40.990887 444.629944,44.359459 446.364136,46.865021 
	C447.560638,48.593758 447.492096,51.310966 447.672821,53.611248 
	C448.737061,67.158508 445.519348,70.609406 432.057526,70.569710 
	C427.078339,70.555023 422.095337,70.680237 417.122314,70.506233 
	C415.710022,70.456802 414.326721,69.578056 412.903748,68.616074 
z"/>
<path fill="#FBFBFB" opacity="1.000000" stroke="none" 
	d="
M358.301514,62.031281 
	C356.376556,69.640419 354.099304,71.474396 346.767883,71.512535 
	C339.341858,71.551163 331.915497,71.521057 324.312134,71.521057 
	C324.312134,60.954227 324.312134,51.028694 324.312134,40.787502 
	C333.428070,40.787502 342.504333,40.272186 351.448669,41.130772 
	C353.842194,41.360531 356.943787,45.476292 357.744385,48.357170 
	C358.899780,52.514740 358.251495,57.173553 358.301514,62.031281 
z"/>
</svg>