<svg version="1.1" id="Layer_1" xmlns="http://www.w3.org/2000/svg" xmlns:xlink="http://www.w3.org/1999/xlink" x="0px" y="0px"
	 width="100%" viewBox="0 0 3150 600" enable-background="new 0 0 3150 600" xml:space="preserve">
<path fill="#FFFFFF" opacity="1.000000" stroke="none" 
	d="
M2315.000000,601.000000 
	C1543.333374,601.000000 772.166687,601.000000 1.000000,601.000000 
	C1.000000,401.000000 1.000000,201.000000 1.000000,1.000000 
	C1051.000000,1.000000 2101.000000,1.000000 3151.000000,1.000000 
	C3151.000000,201.000000 3151.000000,401.000000 3151.000000,601.000000 
	C2872.500000,601.000000 2594.000000,601.000000 2315.000000,601.000000 
M2408.688232,462.266357 
	C2403.775146,457.740936 2401.459229,452.132355 2402.029541,445.484406 
	C2402.547363,439.449280 2403.074951,433.397949 2404.014160,427.419098 
	C2407.283447,406.611206 2410.733398,385.831635 2415.015381,365.008514 
	C2471.677002,362.950287 2528.338379,360.892059 2585.822754,358.963684 
	C2586.880127,358.316681 2588.642578,357.856506 2588.872070,356.990143 
	C2589.832275,353.365906 2590.374512,349.626831 2590.993164,345.917053 
	C2593.228516,332.515381 2595.550781,319.126556 2597.594482,305.695465 
	C2598.521484,299.603333 2598.871826,293.423431 2599.475098,287.371307 
	C2582.650146,286.544159 2566.950684,285.726624 2551.246582,285.017487 
	C2541.812988,284.591553 2532.373535,284.270782 2522.933838,284.014282 
	C2497.060791,283.311249 2471.184082,282.728912 2445.313477,281.954102 
	C2439.270752,281.773102 2433.245117,281.018402 2427.227539,280.528961 
	C2428.266357,273.360657 2429.187988,266.391205 2430.300781,259.452423 
	C2432.478027,245.876144 2434.705078,232.307251 2437.020264,218.753876 
	C2438.776611,208.470825 2439.639648,197.890900 2446.666748,188.801071 
	C2447.458252,187.905319 2448.249756,187.009567 2449.649170,185.815445 
	C2451.449219,184.578827 2453.249268,183.342209 2455.832764,181.982712 
	C2461.448486,180.988480 2467.058594,179.173325 2472.681152,179.133255 
	C2509.142578,178.873413 2545.606689,179.018539 2582.070068,178.992645 
	C2602.046631,178.978455 2622.023438,178.889236 2642.822754,178.963623 
	C2648.294678,179.247452 2646.370361,174.559708 2646.839111,172.195557 
	C2648.779785,162.408340 2650.150146,152.506592 2651.668945,142.637482 
	C2653.459229,131.005447 2655.186035,119.363647 2657.008789,107.272629 
	C2651.684814,106.499802 2646.557129,105.483162 2641.380371,105.056511 
	C2627.414062,103.905403 2613.433838,102.889122 2599.445801,102.039444 
	C2585.915039,101.217522 2572.370117,100.615768 2558.826904,100.015602 
	C2542.457520,99.290192 2526.088135,98.511681 2509.710449,98.043335 
	C2491.617676,97.525940 2473.515869,97.142006 2455.416748,97.064430 
	C2442.383545,97.008553 2429.569092,98.979012 2417.139893,103.053017 
	C2386.494873,113.097771 2368.105469,134.629135 2359.031250,165.642319 
	C2358.984863,166.079224 2358.938477,166.516129 2358.297852,167.328369 
	C2357.920410,168.884491 2357.543213,170.440613 2357.031250,172.642151 
	C2356.984863,173.079010 2356.938477,173.515854 2356.353516,174.240845 
	C2356.291016,174.826370 2356.228516,175.411896 2356.034912,176.729050 
	C2355.987305,177.470276 2355.939697,178.211487 2355.353516,179.240845 
	C2355.291016,179.826370 2355.228516,180.411896 2355.035156,181.729065 
	C2354.987549,182.470276 2354.939697,183.211502 2354.353516,184.240845 
	C2354.291016,184.826370 2354.228516,185.411911 2354.034424,186.836349 
	C2352.331543,198.174622 2350.727295,209.528748 2348.904541,220.847687 
	C2345.678223,240.884216 2342.217529,260.883270 2339.046631,280.928284 
	C2336.205322,298.888702 2333.730225,316.907043 2330.891357,334.867859 
	C2328.413330,350.545380 2325.527832,366.158508 2323.051270,381.836182 
	C2320.213623,399.796997 2317.808105,417.826965 2314.881348,435.772461 
	C2312.104004,452.799500 2308.689697,469.637329 2310.856934,487.153839 
	C2313.129395,505.519470 2321.085205,520.591309 2335.552002,531.633789 
	C2351.432129,543.755127 2370.252197,548.306824 2389.945557,548.893188 
	C2399.529541,549.178467 2409.146729,548.330688 2418.749268,548.003784 
	C2438.453857,547.333069 2458.162109,546.764771 2477.861328,545.961975 
	C2488.911377,545.511658 2499.944824,544.658752 2510.987549,544.019836 
	C2528.631348,542.998962 2546.282471,542.091736 2563.918945,540.958679 
	C2571.294189,540.484924 2578.640625,539.555908 2586.809326,538.958008 
	C2587.870117,536.897217 2589.513916,534.939331 2589.898682,532.759216 
	C2592.684326,516.975830 2595.319824,501.163727 2597.772949,485.325043 
	C2598.692871,479.384796 2599.000488,473.349762 2599.622070,467.000000 
	C2596.467041,467.000000 2594.646484,467.000000 2592.825684,467.000000 
	C2551.199707,467.000000 2509.573486,466.985870 2467.947510,467.007599 
	C2453.298340,467.015228 2438.649170,467.110748 2423.192383,467.029968 
	C2418.459229,465.638702 2413.725830,464.247406 2408.688232,462.266357 
M2694.029541,101.823677 
	C2689.911377,126.658737 2685.793457,151.493805 2681.570312,176.961945 
	C2722.042725,176.961945 2761.782471,176.961945 2802.440674,176.961945 
	C2782.977539,300.276520 2763.618408,422.932495 2744.264160,545.557617 
	C2744.799805,545.732788 2745.112305,545.924133 2745.424805,545.924561 
	C2772.918213,545.958557 2800.411865,545.941895 2827.904785,546.041748 
	C2831.506592,546.054810 2831.632568,543.826172 2832.034668,541.236206 
	C2833.892578,529.267395 2835.900635,517.321960 2837.811279,505.361267 
	C2839.568604,494.359894 2841.309814,483.355682 2842.987549,472.342072 
	C2845.110352,458.410736 2847.094727,444.458099 2849.263184,430.534027 
	C2851.429199,416.622925 2853.744141,402.735016 2856.002197,388.838287 
	C2857.918945,377.043213 2859.867432,365.253326 2861.765137,353.455231 
	C2863.533936,342.457123 2865.306152,331.459106 2866.983154,320.446777 
	C2869.104492,306.514130 2871.012695,292.548157 2873.229004,278.631042 
	C2876.035400,261.011536 2879.150635,243.441269 2881.962158,225.822556 
	C2884.537842,209.680130 2886.886963,193.501526 2889.387207,177.000000 
	C2891.592529,177.000000 2893.563721,177.002457 2895.534668,176.999649 
	C2934.023193,176.944748 2972.511475,176.889252 3011.831543,176.963669 
	C3017.389648,176.621857 3015.316895,171.870804 3015.842773,169.183182 
	C3018.073975,157.787277 3019.721191,146.277267 3021.591797,134.810577 
	C3023.629639,122.321686 3025.677979,109.834534 3027.778320,97.000015 
	C3025.830811,97.000015 3024.346680,97.000015 3022.862549,97.000015 
	C2915.274414,97.000008 2807.686523,96.999992 2700.098389,97.000160 
	C2699.265625,97.000160 2698.431885,97.031906 2697.600586,96.998383 
	C2694.754883,96.883606 2693.616943,98.212921 2694.029541,101.823677 
M2190.980469,288.281311 
	C2190.657959,289.551849 2190.237305,290.806427 2190.027344,292.095337 
	C2188.029541,304.376526 2186.002197,316.653503 2184.114258,328.951782 
	C2182.323242,340.617798 2180.761963,352.319214 2178.958008,363.983093 
	C2177.927490,370.644867 2176.614014,377.262848 2175.337158,384.408936 
	C2174.322998,383.525269 2173.630371,383.203278 2173.396729,382.677246 
	C2165.944092,365.898010 2158.483643,349.121765 2151.133301,332.297485 
	C2140.965332,309.023560 2130.916748,285.697449 2120.755859,262.420471 
	C2114.591064,248.298218 2108.260742,234.248169 2102.093750,220.126892 
	C2093.240967,199.855942 2084.515137,179.529480 2075.649414,159.264267 
	C2067.174316,139.892242 2058.501465,120.606079 2050.136963,101.186806 
	C2048.706055,97.865089 2046.878662,96.904099 2043.409668,96.925072 
	C2019.746948,97.068153 1996.082886,97.000008 1972.419312,97.000000 
	C1968.784180,97.000000 1965.149048,97.000000 1961.371216,97.000000 
	C1937.570679,246.776321 1913.835205,396.143036 1890.068970,545.704102 
	C1919.522095,545.704102 1948.604858,545.704102 1977.750977,545.704102 
	C1992.653442,451.353271 2007.511963,357.281036 2022.627563,261.580566 
	C2024.280518,264.275452 2025.311035,265.631195 2026.006592,267.141296 
	C2030.946899,277.869080 2035.889648,288.596802 2040.698120,299.384033 
	C2051.310303,323.191223 2061.785156,347.059540 2072.428223,370.852783 
	C2080.398193,388.670593 2088.594727,406.387054 2096.597900,424.190186 
	C2107.959717,449.464294 2119.223633,474.782257 2130.554443,500.070221 
	C2136.590332,513.541016 2143.012939,526.852844 2148.551270,540.523926 
	C2150.333496,544.923462 2152.294922,546.131653 2156.745605,546.095947 
	C2181.574219,545.896301 2206.405273,546.000000 2231.235352,546.000000 
	C2233.025146,546.000000 2234.815186,546.000000 2236.649658,546.000000 
	C2260.461670,396.137817 2284.191895,246.789429 2307.963379,97.181335 
	C2278.810059,97.181335 2250.193848,97.181335 2221.041748,97.181335 
	C2219.020508,109.335808 2216.914551,121.392906 2215.030762,133.484634 
	C2212.861084,147.411545 2210.973633,161.382370 2208.805176,175.309479 
	C2206.638672,189.220047 2204.263184,203.098007 2202.003906,216.994217 
	C2200.085693,228.792068 2198.161865,240.589249 2196.315430,252.398453 
	C2194.493652,264.054108 2192.765869,275.724487 2190.980469,288.281311 
M786.472595,292.023865 
	C796.817566,227.162659 807.162476,162.301437 817.526855,97.318726 
	C787.626221,97.318726 758.879700,97.318726 730.461487,97.318726 
	C715.274719,193.316895 700.145142,288.953339 685.015564,384.589813 
	C684.635193,384.587616 684.254883,384.585449 683.874512,384.583282 
	C641.879333,288.770782 599.884155,192.958282 557.914917,97.204903 
	C528.856262,97.204903 500.062317,97.204903 470.900787,97.204903 
	C447.131653,246.768051 423.385284,396.187897 399.576660,545.999390 
	C428.487518,545.999390 456.302979,546.044556 484.116852,545.856506 
	C485.409180,545.847717 487.589935,543.916138 487.826813,542.603943 
	C489.447113,533.627258 490.649323,524.575378 492.003174,515.550232 
	C493.695587,504.268097 495.332977,492.977020 497.124023,481.710449 
	C499.346619,467.729126 501.754150,453.777191 503.984161,439.797028 
	C505.806396,428.372833 507.427887,416.916687 509.242401,405.491241 
	C511.437653,391.668152 513.805725,377.872467 515.980347,364.046234 
	C517.778503,352.613922 519.321411,341.141388 521.127380,329.710388 
	C523.336609,315.727051 525.712219,301.770020 527.996887,287.798462 
	C529.432190,279.020630 530.832642,270.237091 532.456604,260.167084 
	C534.032776,263.659546 535.025879,265.841400 536.003967,268.029938 
	C546.052795,290.516235 556.055908,313.023163 566.162109,335.483643 
	C572.615234,349.825378 579.302734,364.061829 585.737488,378.411652 
	C595.349487,399.846893 604.794128,421.357147 614.382263,442.803162 
	C620.469421,456.418549 626.761597,469.942352 632.829651,483.566101 
	C641.790039,503.683594 650.596008,523.869995 659.630920,543.953674 
	C660.096191,544.988037 662.090149,545.909424 663.376648,545.914917 
	C689.708069,546.028015 716.040344,545.945496 742.371704,546.063965 
	C745.937012,546.079956 746.719482,544.436829 747.062134,541.383789 
	C747.679504,535.884155 748.647217,530.422180 749.524719,524.953552 
	C751.329956,513.703247 753.198914,502.463074 754.992004,491.210846 
	C756.862854,479.471008 758.648865,467.717682 760.520386,455.977966 
	C762.314331,444.725067 764.192139,433.485535 765.992798,422.233704 
	C767.562317,412.425598 769.063904,402.606628 770.616821,392.795868 
	C772.398865,381.537720 774.205872,370.283539 775.999084,359.027191 
	C777.868835,347.290283 779.794922,335.561951 781.585205,323.812897 
	C783.157410,313.494720 784.575623,303.153137 786.472595,292.023865 
M1223.991577,236.335190 
	C1222.822876,243.232117 1221.627441,250.124634 1220.491333,257.026947 
	C1218.640869,268.271179 1216.807739,279.518341 1215.007080,290.770660 
	C1213.437256,300.578888 1211.933716,310.397736 1210.380859,320.208710 
	C1208.598877,331.467255 1206.775879,342.719330 1205.006226,353.979828 
	C1203.488647,363.635864 1202.062500,373.306366 1200.520508,382.958405 
	C1198.723267,394.208496 1196.804321,405.439148 1195.011475,416.689941 
	C1193.140503,428.431732 1191.395508,440.193604 1189.523926,451.935333 
	C1187.730469,463.187103 1185.825562,474.421051 1184.006104,485.668701 
	C1182.082275,497.560791 1180.160767,509.453491 1178.315796,521.357971 
	C1177.073242,529.375793 1175.965576,537.414490 1174.771606,545.622070 
	C1204.171631,545.622070 1233.026733,545.622070 1261.695679,545.622070 
	C1263.966309,531.220337 1266.125122,517.207153 1268.396973,503.212250 
	C1270.534912,490.041687 1272.884766,476.905060 1274.970703,463.726501 
	C1277.136475,450.044250 1278.998535,436.313873 1281.174561,422.633362 
	C1283.679199,406.886444 1286.477417,391.185974 1288.945923,375.433655 
	C1289.778564,370.121735 1290.645630,369.376678 1295.802490,369.990082 
	C1305.561768,371.151001 1315.345459,372.147980 1325.139771,372.963409 
	C1335.962524,373.864502 1346.808594,374.485596 1357.545654,375.221893 
	C1375.176270,432.181152 1392.764648,489.003937 1410.369385,545.879883 
	C1442.879028,545.879883 1475.189697,545.879883 1508.625122,545.879883 
	C1487.277710,487.121002 1466.092651,428.809265 1444.844238,370.322693 
	C1462.881836,368.513916 1478.637695,361.872345 1491.999512,350.346466 
	C1505.881348,338.371979 1515.148804,322.943970 1521.910156,306.072784 
	C1532.299194,280.149597 1536.541870,252.812973 1538.780640,225.228500 
	C1539.753540,213.241043 1538.521484,201.051102 1537.957275,188.968674 
	C1537.314453,175.196823 1533.826416,162.145477 1528.297729,149.437698 
	C1521.699219,134.270844 1511.741577,122.085594 1498.091797,113.098595 
	C1480.703247,101.650063 1460.887451,97.312416 1440.523438,97.165749 
	C1377.528442,96.712067 1314.528198,97.000000 1251.529907,97.000000 
	C1249.739136,97.000000 1247.948242,97.000000 1245.821777,97.000000 
	C1244.802979,104.390739 1243.963623,111.354988 1242.861816,118.277435 
	C1240.994873,130.005707 1238.888794,141.695892 1237.020386,153.423935 
	C1235.225464,164.690674 1233.684082,175.997787 1231.888428,187.264374 
	C1229.326904,203.334732 1226.635254,219.384338 1223.991577,236.335190 
M1596.007568,209.712570 
	C1595.006836,216.149460 1593.958252,222.579346 1593.015259,229.024689 
	C1590.961670,243.060928 1589.112915,257.128906 1586.896484,271.139008 
	C1584.787354,284.469788 1582.158081,297.718323 1580.048950,311.049103 
	C1577.832153,325.059113 1576.093872,339.144592 1573.901123,353.158691 
	C1571.763794,366.818329 1569.203613,380.411469 1567.034424,394.066467 
	C1564.554688,409.677094 1562.507812,425.358368 1559.891846,440.944977 
	C1557.310181,456.327332 1554.807007,471.551331 1556.849609,487.342560 
	C1559.484009,507.708557 1568.819946,523.778076 1585.845459,534.837524 
	C1600.907715,544.621765 1618.097656,548.448303 1635.903198,548.897827 
	C1645.482910,549.139709 1655.090210,548.362061 1664.683105,547.995056 
	C1681.539185,547.350159 1698.395874,546.712585 1715.248535,545.986206 
	C1729.106934,545.388855 1742.961914,544.701294 1756.815186,543.990417 
	C1768.839844,543.373352 1780.863159,542.721008 1792.881104,541.986633 
	C1806.804932,541.135803 1820.722412,540.178101 1834.649658,539.266296 
	C1838.674072,514.924988 1842.589722,491.241516 1846.597534,467.000000 
	C1843.765259,467.000000 1841.968384,467.000000 1840.171509,467.000000 
	C1785.508667,467.000000 1730.845703,467.022614 1676.182861,466.955902 
	C1671.930420,466.950714 1667.628540,466.619965 1663.436523,465.919983 
	C1653.135864,464.200012 1645.581055,453.855652 1647.102173,443.721344 
	C1648.284180,435.847382 1649.742920,428.015350 1650.982300,420.149475 
	C1653.694214,402.935455 1656.287598,385.702332 1659.133423,368.510773 
	C1659.349609,367.205353 1661.017578,365.418488 1662.286499,365.147400 
	C1665.791626,364.398651 1669.436768,364.183990 1673.038086,364.029633 
	C1682.795288,363.611420 1692.558838,363.335907 1702.319580,362.999725 
	C1711.913940,362.669281 1721.508179,362.335693 1731.102295,362.000122 
	C1750.124146,361.334808 1769.143799,360.600006 1788.168335,360.022278 
	C1802.758911,359.579163 1817.355713,359.337738 1831.949219,358.988617 
	C1832.911987,358.965546 1833.871094,358.789215 1834.760620,358.691956 
	C1838.702148,334.783752 1842.604858,311.111115 1846.493286,287.524536 
	C1838.460571,286.963684 1831.564697,286.376038 1824.656860,286.026642 
	C1815.901489,285.583740 1807.137451,285.295319 1798.375000,285.009460 
	C1777.187378,284.318298 1756.000122,283.612579 1734.809692,283.018433 
	C1719.551758,282.590546 1704.286255,282.425537 1689.030273,281.948486 
	C1683.792847,281.784698 1678.573730,281.030670 1672.862305,280.501465 
	C1673.239746,278.797455 1673.702148,277.129974 1673.971436,275.431854 
	C1677.669556,252.112930 1681.037964,228.736588 1685.117920,205.484970 
	C1688.207031,187.879868 1698.989014,179.136978 1716.780762,179.073990 
	C1773.276123,178.873993 1829.772705,179.000000 1886.268799,179.000000 
	C1888.066162,179.000000 1889.863525,179.000000 1891.750122,179.000000 
	C1895.520508,154.961288 1899.225342,131.340332 1903.006348,107.234116 
	C1897.856201,106.486961 1892.764771,105.474678 1887.625000,105.055168 
	C1873.520996,103.903984 1859.403320,102.893112 1845.278442,102.032494 
	C1831.931885,101.219299 1818.572021,100.607254 1805.213135,100.016159 
	C1788.694092,99.285225 1772.170654,98.643707 1755.647461,98.009178 
	C1745.721802,97.628014 1735.794312,97.123131 1725.864868,97.047150 
	C1708.538940,96.914558 1691.157593,96.196823 1674.052246,100.008148 
	C1659.480591,103.254959 1645.769897,108.626740 1634.280640,118.327049 
	C1613.448242,135.915726 1604.480713,159.730072 1600.002441,185.734039 
	C1598.677612,193.426819 1597.375000,201.123444 1596.007568,209.712570 
M813.991760,511.326172 
	C812.046936,522.776184 810.102112,534.226135 808.102234,546.000000 
	C835.183472,546.000000 861.832947,545.904480 888.480408,546.085449 
	C893.453308,546.119263 895.515930,545.650452 896.329407,539.474365 
	C899.195618,517.713135 903.464355,496.140411 906.940002,474.454346 
	C909.828186,456.433960 912.225037,438.335175 915.068542,420.307251 
	C917.751831,403.294830 920.733765,386.329498 923.520752,369.722473 
	C938.254333,371.802063 953.070923,374.166260 967.959351,375.922394 
	C984.721985,377.899597 1001.524902,380.315643 1018.355103,380.733521 
	C1037.172119,381.200684 1056.090210,382.401062 1074.902100,379.093872 
	C1096.437012,375.307983 1114.708252,366.015900 1129.682739,349.923431 
	C1142.357422,336.302338 1150.777954,320.368835 1157.040649,303.081299 
	C1164.035522,283.773407 1168.477417,263.895203 1171.084839,243.531357 
	C1173.198608,227.022858 1174.743896,210.629517 1173.208862,193.890228 
	C1171.931763,179.963272 1169.310791,166.578003 1164.020874,153.670822 
	C1155.651123,133.249146 1141.278809,118.212608 1121.756226,108.492638 
	C1104.387329,99.844902 1085.487793,97.081779 1066.194458,97.009865 
	C1052.529541,96.958931 1038.864502,97.000000 1025.199463,97.000000 
	C978.371948,97.000000 931.544373,97.020508 884.716919,96.959114 
	C881.161072,96.954453 879.051819,97.093727 878.791504,101.855331 
	C878.403198,108.960640 876.628662,115.988365 875.474121,123.054031 
	C873.636597,134.299683 871.806030,145.546539 870.006042,156.798233 
	C868.437195,166.605240 866.922119,176.420853 865.369507,186.230484 
	C863.587708,197.488358 861.792847,208.744171 859.999939,220.000290 
	C858.130554,231.736084 856.256592,243.471130 854.384949,255.206558 
	C852.589905,266.461914 850.776489,277.714355 849.006226,288.973572 
	C847.488403,298.627502 846.061157,308.295776 844.519409,317.945801 
	C842.722107,329.195862 840.781433,340.423218 839.018188,351.678436 
	C837.202271,363.269836 835.597839,374.894440 833.768188,386.483582 
	C831.585754,400.306976 829.196838,414.097778 827.020447,427.922089 
	C825.220825,439.353149 823.690186,450.826630 821.878357,462.255646 
	C819.330505,478.327057 816.632812,494.374695 813.991760,511.326172 
M372.000946,293.603210 
	C373.000366,287.832916 374.057495,282.071930 374.986267,276.290283 
	C376.561859,266.482452 378.036957,256.658539 379.590485,246.847107 
	C381.372894,235.590271 383.220428,224.343735 384.991516,213.085129 
	C386.510315,203.429947 387.912384,193.756271 389.454742,184.104965 
	C391.252563,172.855377 393.172913,161.625412 394.991974,150.379166 
	C396.915527,138.486847 398.812927,126.590118 400.660889,114.685852 
	C401.551178,108.950920 402.301666,103.194283 403.143311,97.250557 
	C373.805267,97.250557 345.052185,97.250557 316.338989,97.250557 
	C292.597076,246.865234 268.894897,396.229462 245.159851,545.800903 
	C274.027863,545.800903 302.811523,545.800903 332.024109,545.800903 
	C333.690247,535.478027 335.394226,525.232178 336.986969,514.969055 
	C338.761383,503.534882 340.361633,492.073486 342.172180,480.645233 
	C344.030579,468.915131 346.114899,457.220825 347.983215,445.492188 
	C349.777618,434.227356 351.358154,422.928467 353.148376,411.662933 
	C355.370270,397.681061 357.756592,383.725342 359.986267,369.744659 
	C361.808136,358.321381 363.445404,346.868652 365.271423,335.446106 
	C367.454865,321.787903 369.752075,308.147888 372.000946,293.603210 
z"/>
<path fill="#34E4DC" opacity="1.000000" stroke="none" 
	d="
M2190.988770,287.834869 
	C2192.765869,275.724487 2194.493652,264.054108 2196.315430,252.398453 
	C2198.161865,240.589249 2200.085693,228.792068 2202.003906,216.994217 
	C2204.263184,203.098007 2206.638672,189.220047 2208.805176,175.309479 
	C2210.973633,161.382370 2212.861084,147.411545 2215.030762,133.484634 
	C2216.914551,121.392906 2219.020508,109.335808 2221.041748,97.181335 
	C2250.193848,97.181335 2278.810059,97.181335 2307.963379,97.181335 
	C2284.191895,246.789429 2260.461670,396.137817 2236.649658,546.000000 
	C2234.815186,546.000000 2233.025146,546.000000 2231.235352,546.000000 
	C2206.405273,546.000000 2181.574219,545.896301 2156.745605,546.095947 
	C2152.294922,546.131653 2150.333496,544.923462 2148.551270,540.523926 
	C2143.012939,526.852844 2136.590332,513.541016 2130.554443,500.070221 
	C2119.223633,474.782257 2107.959717,449.464294 2096.597900,424.190186 
	C2088.594727,406.387054 2080.398193,388.670593 2072.428223,370.852783 
	C2061.785156,347.059540 2051.310303,323.191223 2040.698120,299.384033 
	C2035.889648,288.596802 2030.946899,277.869080 2026.006592,267.141296 
	C2025.311035,265.631195 2024.280518,264.275452 2022.627563,261.580566 
	C2007.511963,357.281036 1992.653442,451.353271 1977.750977,545.704102 
	C1948.604858,545.704102 1919.522095,545.704102 1890.068970,545.704102 
	C1913.835205,396.143036 1937.570679,246.776321 1961.371216,97.000000 
	C1965.149048,97.000000 1968.784180,97.000000 1972.419312,97.000000 
	C1996.082886,97.000008 2019.746948,97.068153 2043.409668,96.925072 
	C2046.878662,96.904099 2048.706055,97.865089 2050.136963,101.186806 
	C2058.501465,120.606079 2067.174316,139.892242 2075.649414,159.264267 
	C2084.515137,179.529480 2093.240967,199.855942 2102.093750,220.126892 
	C2108.260742,234.248169 2114.591064,248.298218 2120.755859,262.420471 
	C2130.916748,285.697449 2140.965332,309.023560 2151.133301,332.297485 
	C2158.483643,349.121765 2165.944092,365.898010 2173.396729,382.677246 
	C2173.630371,383.203278 2174.322998,383.525269 2175.337158,384.408936 
	C2176.614014,377.262848 2177.927490,370.644867 2178.958008,363.983093 
	C2180.761963,352.319214 2182.323242,340.617798 2184.114258,328.951782 
	C2186.002197,316.653503 2188.029541,304.376526 2190.027344,292.095337 
	C2190.237305,290.806427 2190.657959,289.551849 2190.988770,287.834869 
z"/>
<path fill="#13776B" opacity="1.000000" stroke="none" 
	d="
M786.267212,292.422852 
	C784.575623,303.153137 783.157410,313.494720 781.585205,323.812897 
	C779.794922,335.561951 777.868835,347.290283 775.999084,359.027191 
	C774.205872,370.283539 772.398865,381.537720 770.616821,392.795868 
	C769.063904,402.606628 767.562317,412.425598 765.992798,422.233704 
	C764.192139,433.485535 762.314331,444.725067 760.520386,455.977966 
	C758.648865,467.717682 756.862854,479.471008 754.992004,491.210846 
	C753.198914,502.463074 751.329956,513.703247 749.524719,524.953552 
	C748.647217,530.422180 747.679504,535.884155 747.062134,541.383789 
	C746.719482,544.436829 745.937012,546.079956 742.371704,546.063965 
	C716.040344,545.945496 689.708069,546.028015 663.376648,545.914917 
	C662.090149,545.909424 660.096191,544.988037 659.630920,543.953674 
	C650.596008,523.869995 641.790039,503.683594 632.829651,483.566101 
	C626.761597,469.942352 620.469421,456.418549 614.382263,442.803162 
	C604.794128,421.357147 595.349487,399.846893 585.737488,378.411652 
	C579.302734,364.061829 572.615234,349.825378 566.162109,335.483643 
	C556.055908,313.023163 546.052795,290.516235 536.003967,268.029938 
	C535.025879,265.841400 534.032776,263.659546 532.456604,260.167084 
	C530.832642,270.237091 529.432190,279.020630 527.996887,287.798462 
	C525.712219,301.770020 523.336609,315.727051 521.127380,329.710388 
	C519.321411,341.141388 517.778503,352.613922 515.980347,364.046234 
	C513.805725,377.872467 511.437653,391.668152 509.242401,405.491241 
	C507.427887,416.916687 505.806396,428.372833 503.984161,439.797028 
	C501.754150,453.777191 499.346619,467.729126 497.124023,481.710449 
	C495.332977,492.977020 493.695587,504.268097 492.003174,515.550232 
	C490.649323,524.575378 489.447113,533.627258 487.826813,542.603943 
	C487.589935,543.916138 485.409180,545.847717 484.116852,545.856506 
	C456.302979,546.044556 428.487518,545.999390 399.576660,545.999390 
	C423.385284,396.187897 447.131653,246.768051 470.900787,97.204903 
	C500.062317,97.204903 528.856262,97.204903 557.914917,97.204903 
	C599.884155,192.958282 641.879333,288.770782 683.874512,384.583282 
	C684.254883,384.585449 684.635193,384.587616 685.015564,384.589813 
	C700.145142,288.953339 715.274719,193.316895 730.461487,97.318726 
	C758.879700,97.318726 787.626221,97.318726 817.526855,97.318726 
	C807.162476,162.301437 796.817566,227.162659 786.267212,292.422852 
z"/>
<path fill="#13776B" opacity="1.000000" stroke="none" 
	d="
M1223.995361,235.889008 
	C1226.635254,219.384338 1229.326904,203.334732 1231.888428,187.264374 
	C1233.684082,175.997787 1235.225464,164.690674 1237.020386,153.423935 
	C1238.888794,141.695892 1240.994873,130.005707 1242.861816,118.277435 
	C1243.963623,111.354988 1244.802979,104.390739 1245.821777,97.000000 
	C1247.948242,97.000000 1249.739136,97.000000 1251.529907,97.000000 
	C1314.528198,97.000000 1377.528442,96.712067 1440.523438,97.165749 
	C1460.887451,97.312416 1480.703247,101.650063 1498.091797,113.098595 
	C1511.741577,122.085594 1521.699219,134.270844 1528.297729,149.437698 
	C1533.826416,162.145477 1537.314453,175.196823 1537.957275,188.968674 
	C1538.521484,201.051102 1539.753540,213.241043 1538.780640,225.228500 
	C1536.541870,252.812973 1532.299194,280.149597 1521.910156,306.072784 
	C1515.148804,322.943970 1505.881348,338.371979 1491.999512,350.346466 
	C1478.637695,361.872345 1462.881836,368.513916 1444.844238,370.322693 
	C1466.092651,428.809265 1487.277710,487.121002 1508.625122,545.879883 
	C1475.189697,545.879883 1442.879028,545.879883 1410.369385,545.879883 
	C1392.764648,489.003937 1375.176270,432.181152 1357.545654,375.221893 
	C1346.808594,374.485596 1335.962524,373.864502 1325.139771,372.963409 
	C1315.345459,372.147980 1305.561768,371.151001 1295.802490,369.990082 
	C1290.645630,369.376678 1289.778564,370.121735 1288.945923,375.433655 
	C1286.477417,391.185974 1283.679199,406.886444 1281.174561,422.633362 
	C1278.998535,436.313873 1277.136475,450.044250 1274.970703,463.726501 
	C1272.884766,476.905060 1270.534912,490.041687 1268.396973,503.212250 
	C1266.125122,517.207153 1263.966309,531.220337 1261.695679,545.622070 
	C1233.026733,545.622070 1204.171631,545.622070 1174.771606,545.622070 
	C1175.965576,537.414490 1177.073242,529.375793 1178.315796,521.357971 
	C1180.160767,509.453491 1182.082275,497.560791 1184.006104,485.668701 
	C1185.825562,474.421051 1187.730469,463.187103 1189.523926,451.935333 
	C1191.395508,440.193604 1193.140503,428.431732 1195.011475,416.689941 
	C1196.804321,405.439148 1198.723267,394.208496 1200.520508,382.958405 
	C1202.062500,373.306366 1203.488647,363.635864 1205.006226,353.979828 
	C1206.775879,342.719330 1208.598877,331.467255 1210.380859,320.208710 
	C1211.933716,310.397736 1213.437256,300.578888 1215.007080,290.770660 
	C1216.807739,279.518341 1218.640869,268.271179 1220.491333,257.026947 
	C1221.627441,250.124634 1222.822876,243.232117 1223.995361,235.889008 
M1426.310181,174.000366 
	C1423.556152,173.666901 1420.802734,173.049683 1418.047974,173.043488 
	C1387.398193,172.974487 1356.748169,173.000000 1326.098267,173.000000 
	C1324.470337,173.000000 1322.842529,173.000000 1321.182983,173.000000 
	C1314.445435,216.185303 1307.781738,258.896881 1301.108887,301.667572 
	C1301.860229,301.808533 1302.340332,301.977264 1302.820557,301.977509 
	C1334.803101,301.993530 1366.788208,302.212341 1398.765625,301.806610 
	C1404.748169,301.730713 1411.026611,299.927795 1416.604126,297.580597 
	C1434.925293,289.870483 1441.777222,273.620026 1445.951660,255.828522 
	C1449.850220,239.212006 1450.799438,222.262314 1449.905884,205.286255 
	C1449.145630,190.843628 1444.810913,177.391571 1426.310181,174.000366 
z"/>
<path fill="#13776B" opacity="1.000000" stroke="none" 
	d="
M1596.034912,209.265442 
	C1597.375000,201.123444 1598.677612,193.426819 1600.002441,185.734039 
	C1604.480713,159.730072 1613.448242,135.915726 1634.280640,118.327049 
	C1645.769897,108.626740 1659.480591,103.254959 1674.052246,100.008148 
	C1691.157593,96.196823 1708.538940,96.914558 1725.864868,97.047150 
	C1735.794312,97.123131 1745.721802,97.628014 1755.647461,98.009178 
	C1772.170654,98.643707 1788.694092,99.285225 1805.213135,100.016159 
	C1818.572021,100.607254 1831.931885,101.219299 1845.278442,102.032494 
	C1859.403320,102.893112 1873.520996,103.903984 1887.625000,105.055168 
	C1892.764771,105.474678 1897.856201,106.486961 1903.006348,107.234116 
	C1899.225342,131.340332 1895.520508,154.961288 1891.750122,179.000000 
	C1889.863525,179.000000 1888.066162,179.000000 1886.268799,179.000000 
	C1829.772705,179.000000 1773.276123,178.873993 1716.780762,179.073990 
	C1698.989014,179.136978 1688.207031,187.879868 1685.117920,205.484970 
	C1681.037964,228.736588 1677.669556,252.112930 1673.971436,275.431854 
	C1673.702148,277.129974 1673.239746,278.797455 1672.862305,280.501465 
	C1678.573730,281.030670 1683.792847,281.784698 1689.030273,281.948486 
	C1704.286255,282.425537 1719.551758,282.590546 1734.809692,283.018433 
	C1756.000122,283.612579 1777.187378,284.318298 1798.375000,285.009460 
	C1807.137451,285.295319 1815.901489,285.583740 1824.656860,286.026642 
	C1831.564697,286.376038 1838.460571,286.963684 1846.493286,287.524536 
	C1842.604858,311.111115 1838.702148,334.783752 1834.760620,358.691956 
	C1833.871094,358.789215 1832.911987,358.965546 1831.949219,358.988617 
	C1817.355713,359.337738 1802.758911,359.579163 1788.168335,360.022278 
	C1769.143799,360.600006 1750.124146,361.334808 1731.102295,362.000122 
	C1721.508179,362.335693 1711.913940,362.669281 1702.319580,362.999725 
	C1692.558838,363.335907 1682.795288,363.611420 1673.038086,364.029633 
	C1669.436768,364.183990 1665.791626,364.398651 1662.286499,365.147400 
	C1661.017578,365.418488 1659.349609,367.205353 1659.133423,368.510773 
	C1656.287598,385.702332 1653.694214,402.935455 1650.982300,420.149475 
	C1649.742920,428.015350 1648.284180,435.847382 1647.102173,443.721344 
	C1645.581055,453.855652 1653.135864,464.200012 1663.436523,465.919983 
	C1667.628540,466.619965 1671.930420,466.950714 1676.182861,466.955902 
	C1730.845703,467.022614 1785.508667,467.000000 1840.171509,467.000000 
	C1841.968384,467.000000 1843.765259,467.000000 1846.597534,467.000000 
	C1842.589722,491.241516 1838.674072,514.924988 1834.649658,539.266296 
	C1820.722412,540.178101 1806.804932,541.135803 1792.881104,541.986633 
	C1780.863159,542.721008 1768.839844,543.373352 1756.815186,543.990417 
	C1742.961914,544.701294 1729.106934,545.388855 1715.248535,545.986206 
	C1698.395874,546.712585 1681.539185,547.350159 1664.683105,547.995056 
	C1655.090210,548.362061 1645.482910,549.139709 1635.903198,548.897827 
	C1618.097656,548.448303 1600.907715,544.621765 1585.845459,534.837524 
	C1568.819946,523.778076 1559.484009,507.708557 1556.849609,487.342560 
	C1554.807007,471.551331 1557.310181,456.327332 1559.891846,440.944977 
	C1562.507812,425.358368 1564.554688,409.677094 1567.034424,394.066467 
	C1569.203613,380.411469 1571.763794,366.818329 1573.901123,353.158691 
	C1576.093872,339.144592 1577.832153,325.059113 1580.048950,311.049103 
	C1582.158081,297.718323 1584.787354,284.469788 1586.896484,271.139008 
	C1589.112915,257.128906 1590.961670,243.060928 1593.015259,229.024689 
	C1593.958252,222.579346 1595.006836,216.149460 1596.034912,209.265442 
z"/>
<path fill="#13776B" opacity="1.000000" stroke="none" 
	d="
M813.995483,510.879333 
	C816.632812,494.374695 819.330505,478.327057 821.878357,462.255646 
	C823.690186,450.826630 825.220825,439.353149 827.020447,427.922089 
	C829.196838,414.097778 831.585754,400.306976 833.768188,386.483582 
	C835.597839,374.894440 837.202271,363.269836 839.018188,351.678436 
	C840.781433,340.423218 842.722107,329.195862 844.519409,317.945801 
	C846.061157,308.295776 847.488403,298.627502 849.006226,288.973572 
	C850.776489,277.714355 852.589905,266.461914 854.384949,255.206558 
	C856.256592,243.471130 858.130554,231.736084 859.999939,220.000290 
	C861.792847,208.744171 863.587708,197.488358 865.369507,186.230484 
	C866.922119,176.420853 868.437195,166.605240 870.006042,156.798233 
	C871.806030,145.546539 873.636597,134.299683 875.474121,123.054031 
	C876.628662,115.988365 878.403198,108.960640 878.791504,101.855331 
	C879.051819,97.093727 881.161072,96.954453 884.716919,96.959114 
	C931.544373,97.020508 978.371948,97.000000 1025.199463,97.000000 
	C1038.864502,97.000000 1052.529541,96.958931 1066.194458,97.009865 
	C1085.487793,97.081779 1104.387329,99.844902 1121.756226,108.492638 
	C1141.278809,118.212608 1155.651123,133.249146 1164.020874,153.670822 
	C1169.310791,166.578003 1171.931763,179.963272 1173.208862,193.890228 
	C1174.743896,210.629517 1173.198608,227.022858 1171.084839,243.531357 
	C1168.477417,263.895203 1164.035522,283.773407 1157.040649,303.081299 
	C1150.777954,320.368835 1142.357422,336.302338 1129.682739,349.923431 
	C1114.708252,366.015900 1096.437012,375.307983 1074.902100,379.093872 
	C1056.090210,382.401062 1037.172119,381.200684 1018.355103,380.733521 
	C1001.524902,380.315643 984.721985,377.899597 967.959351,375.922394 
	C953.070923,374.166260 938.254333,371.802063 923.520752,369.722473 
	C920.733765,386.329498 917.751831,403.294830 915.068542,420.307251 
	C912.225037,438.335175 909.828186,456.433960 906.940002,474.454346 
	C903.464355,496.140411 899.195618,517.713135 896.329407,539.474365 
	C895.515930,545.650452 893.453308,546.119263 888.480408,546.085449 
	C861.832947,545.904480 835.183472,546.000000 808.102234,546.000000 
	C810.102112,534.226135 812.046936,522.776184 813.995483,510.879333 
M983.500000,173.000000 
	C973.717102,173.000000 963.934204,173.000000 954.183105,173.000000 
	C950.730591,195.276230 947.412598,217.007690 943.982971,238.721497 
	C940.568970,260.336243 937.042725,281.933319 933.330505,305.000000 
	C951.947998,305.000000 969.342834,305.000000 986.737610,305.000000 
	C1001.064026,305.000000 1015.393005,305.173523 1029.716187,304.955963 
	C1047.504517,304.685730 1061.307373,296.910187 1069.353760,280.995361 
	C1082.079468,255.825668 1087.150513,228.977295 1083.867432,200.858292 
	C1083.099365,194.279922 1080.323242,188.172668 1075.631348,183.033585 
	C1068.796265,175.547043 1059.889526,173.243942 1050.466431,173.104095 
	C1028.481934,172.777878 1006.489319,173.000000 983.500000,173.000000 
z"/>
<path fill="#34E4DC" opacity="1.000000" stroke="none" 
	d="
M2354.892090,183.952713 
	C2354.939697,183.211502 2354.987549,182.470276 2355.386230,181.321732 
	C2355.789062,180.260498 2355.840576,179.606598 2355.892090,178.952698 
	C2355.939697,178.211487 2355.987305,177.470276 2356.386230,176.321716 
	C2356.789062,175.260498 2356.840576,174.606613 2356.892090,173.952713 
	C2356.938477,173.515854 2356.984863,173.079010 2357.423584,172.256516 
	C2358.174561,170.231598 2358.533203,168.592316 2358.891846,166.953049 
	C2358.938477,166.516129 2358.984863,166.079224 2359.437500,165.248840 
	C2360.913330,162.667847 2362.151367,160.545410 2363.025391,158.282379 
	C2369.235352,142.199432 2379.002686,128.868088 2393.188232,118.904961 
	C2411.083984,106.335945 2431.468750,101.701523 2452.821777,101.137558 
	C2467.412109,100.752197 2482.041748,101.531013 2496.645020,102.039612 
	C2510.219238,102.512367 2523.780762,103.340500 2537.349854,103.969559 
	C2559.531494,104.997902 2581.717773,105.939079 2603.896729,107.021759 
	C2615.305176,107.578674 2626.712646,108.233307 2638.100830,109.103065 
	C2642.962646,109.474396 2647.773926,110.507935 2652.666748,111.249435 
	C2651.044434,122.126350 2649.584961,132.418533 2647.958496,142.684311 
	C2646.048096,154.746140 2643.992676,166.785049 2642.000000,178.833878 
	C2622.023438,178.889236 2602.046631,178.978455 2582.070068,178.992645 
	C2545.606689,179.018539 2509.142578,178.873413 2472.681152,179.133255 
	C2467.058594,179.173325 2461.448486,180.988480 2455.229736,181.761475 
	C2451.053223,180.974503 2448.992188,182.255539 2449.041260,186.113831 
	C2448.249756,187.009567 2447.458252,187.905319 2446.010742,188.913101 
	C2444.100830,189.920563 2442.228271,190.545609 2441.698242,191.757797 
	C2439.261719,197.330841 2436.498779,202.908371 2435.164062,208.782242 
	C2433.047607,218.096298 2432.008057,227.653030 2430.456299,237.097778 
	C2428.021484,251.917892 2425.475342,266.720612 2423.222656,281.567993 
	C2423.074219,282.547302 2424.893311,284.693390 2425.996582,284.844971 
	C2430.900391,285.518707 2435.872559,285.787781 2440.828125,285.976959 
	C2459.714600,286.697815 2478.604492,287.333099 2497.492920,287.996704 
	C2516.547852,288.666168 2535.601562,289.365723 2554.658203,289.986206 
	C2566.929688,290.385773 2579.204102,290.821747 2591.479736,290.917206 
	C2595.855225,290.951263 2596.341309,292.405243 2595.494385,296.345337 
	C2593.970459,303.434875 2593.183838,310.680145 2591.984131,317.842834 
	C2589.694824,331.512970 2587.332275,345.170868 2585.000000,358.833832 
	C2528.338379,360.892059 2471.677002,362.950287 2414.176514,365.019653 
	C2411.895020,367.528870 2409.617676,369.878571 2409.142822,372.548798 
	C2405.645752,392.218994 2402.308350,411.923401 2399.362793,431.682922 
	C2398.292725,438.861267 2397.875732,446.239746 2398.144287,453.490479 
	C2398.533691,464.008911 2406.816650,470.012451 2421.375000,471.000000 
	C2422.500000,471.000000 2423.250000,471.000000 2424.468750,471.000000 
	C2481.817383,471.000000 2538.697021,471.000000 2595.563965,471.000000 
	C2595.770264,472.425537 2596.032715,473.102814 2595.933350,473.722015 
	C2594.152344,484.807404 2592.237549,495.872009 2590.538330,506.969666 
	C2588.914307,517.573975 2587.504150,528.211121 2586.000000,538.833862 
	C2578.640625,539.555908 2571.294189,540.484924 2563.918945,540.958679 
	C2546.282471,542.091736 2528.631348,542.998962 2510.987549,544.019836 
	C2499.944824,544.658752 2488.911377,545.511658 2477.861328,545.961975 
	C2458.162109,546.764771 2438.453857,547.333069 2418.749268,548.003784 
	C2409.146729,548.330688 2399.529541,549.178467 2389.945557,548.893188 
	C2370.252197,548.306824 2351.432129,543.755127 2335.552002,531.633789 
	C2321.085205,520.591309 2313.129395,505.519470 2310.856934,487.153839 
	C2308.689697,469.637329 2312.104004,452.799500 2314.881348,435.772461 
	C2317.808105,417.826965 2320.213623,399.796997 2323.051270,381.836182 
	C2325.527832,366.158508 2328.413330,350.545380 2330.891357,334.867859 
	C2333.730225,316.907043 2336.205322,298.888702 2339.046631,280.928284 
	C2342.217529,260.883270 2345.678223,240.884216 2348.904541,220.847687 
	C2350.727295,209.528748 2352.331543,198.174622 2354.385986,186.375366 
	C2354.789062,185.260498 2354.840576,184.606598 2354.892090,183.952713 
z"/>
<path fill="#34E4DC" opacity="1.000000" stroke="none" 
	d="
M3011.000000,176.833862 
	C2972.511475,176.889252 2934.023193,176.944748 2895.534668,176.999649 
	C2893.563721,177.002457 2891.592529,177.000000 2889.387207,177.000000 
	C2886.886963,193.501526 2884.537842,209.680130 2881.962158,225.822556 
	C2879.150635,243.441269 2876.035400,261.011536 2873.229004,278.631042 
	C2871.012695,292.548157 2869.104492,306.514130 2866.983154,320.446777 
	C2865.306152,331.459106 2863.533936,342.457123 2861.765137,353.455231 
	C2859.867432,365.253326 2857.918945,377.043213 2856.002197,388.838287 
	C2853.744141,402.735016 2851.429199,416.622925 2849.263184,430.534027 
	C2847.094727,444.458099 2845.110352,458.410736 2842.987549,472.342072 
	C2841.309814,483.355682 2839.568604,494.359894 2837.811279,505.361267 
	C2835.900635,517.321960 2833.892578,529.267395 2832.034668,541.236206 
	C2831.632568,543.826172 2831.506592,546.054810 2827.904785,546.041748 
	C2800.411865,545.941895 2772.918213,545.958557 2745.424805,545.924561 
	C2745.112305,545.924133 2744.799805,545.732788 2744.264160,545.557617 
	C2763.618408,422.932495 2782.977539,300.276520 2802.440674,176.961945 
	C2761.782471,176.961945 2722.042725,176.961945 2681.570312,176.961945 
	C2685.793457,151.493805 2689.911377,126.658737 2694.554688,101.411942 
	C2714.409180,101.000137 2733.738525,101.000015 2753.067871,101.000015 
	C2841.216553,101.000000 2929.364990,101.013130 3017.513672,100.953636 
	C3021.163086,100.951172 3023.719727,101.096481 3022.885742,105.958900 
	C3018.834717,129.568634 3014.946045,153.206177 3011.000000,176.833862 
z"/>
<path fill="#13776B" opacity="1.000000" stroke="none" 
	d="
M372.000488,294.051605 
	C369.752075,308.147888 367.454865,321.787903 365.271423,335.446106 
	C363.445404,346.868652 361.808136,358.321381 359.986267,369.744659 
	C357.756592,383.725342 355.370270,397.681061 353.148376,411.662933 
	C351.358154,422.928467 349.777618,434.227356 347.983215,445.492188 
	C346.114899,457.220825 344.030579,468.915131 342.172180,480.645233 
	C340.361633,492.073486 338.761383,503.534882 336.986969,514.969055 
	C335.394226,525.232178 333.690247,535.478027 332.024109,545.800903 
	C302.811523,545.800903 274.027863,545.800903 245.159851,545.800903 
	C268.894897,396.229462 292.597076,246.865234 316.338989,97.250557 
	C345.052185,97.250557 373.805267,97.250557 403.143311,97.250557 
	C402.301666,103.194283 401.551178,108.950920 400.660889,114.685852 
	C398.812927,126.590118 396.915527,138.486847 394.991974,150.379166 
	C393.172913,161.625412 391.252563,172.855377 389.454742,184.104965 
	C387.912384,193.756271 386.510315,203.429947 384.991516,213.085129 
	C383.220428,224.343735 381.372894,235.590271 379.590485,246.847107 
	C378.036957,256.658539 376.561859,266.482452 374.986267,276.290283 
	C374.057495,282.071930 373.000366,287.832916 372.000488,294.051605 
z"/>
<path fill="#34E4DC" opacity="1.000000" stroke="none" 
	d="
M3011.415771,176.898758 
	C3014.946045,153.206177 3018.834717,129.568634 3022.885742,105.958900 
	C3023.719727,101.096481 3021.163086,100.951172 3017.513672,100.953636 
	C2929.364990,101.013130 2841.216553,101.000000 2753.067871,101.000015 
	C2733.738525,101.000015 2714.409180,101.000137 2694.623047,101.000420 
	C2693.616943,98.212921 2694.754883,96.883606 2697.600586,96.998383 
	C2698.431885,97.031906 2699.265625,97.000160 2700.098389,97.000160 
	C2807.686523,96.999992 2915.274414,97.000008 3022.862549,97.000015 
	C3024.346680,97.000015 3025.830811,97.000015 3027.778320,97.000015 
	C3025.677979,109.834534 3023.629639,122.321686 3021.591797,134.810577 
	C3019.721191,146.277267 3018.073975,157.787277 3015.842773,169.183182 
	C3015.316895,171.870804 3017.389648,176.621857 3011.415771,176.898758 
z"/>
<path fill="#34E4DC" opacity="1.000000" stroke="none" 
	d="
M2642.411621,178.898758 
	C2643.992676,166.785049 2646.048096,154.746140 2647.958496,142.684311 
	C2649.584961,132.418533 2651.044434,122.126350 2652.666748,111.249435 
	C2647.773926,110.507935 2642.962646,109.474396 2638.100830,109.103065 
	C2626.712646,108.233307 2615.305176,107.578674 2603.896729,107.021759 
	C2581.717773,105.939079 2559.531494,104.997902 2537.349854,103.969559 
	C2523.780762,103.340500 2510.219238,102.512367 2496.645020,102.039612 
	C2482.041748,101.531013 2467.412109,100.752197 2452.821777,101.137558 
	C2431.468750,101.701523 2411.083984,106.335945 2393.188232,118.904961 
	C2379.002686,128.868088 2369.235352,142.199432 2363.025391,158.282379 
	C2362.151367,160.545410 2360.913330,162.667847 2359.504883,164.926025 
	C2368.105469,134.629135 2386.494873,113.097771 2417.139893,103.053017 
	C2429.569092,98.979012 2442.383545,97.008553 2455.416748,97.064430 
	C2473.515869,97.142006 2491.617676,97.525940 2509.710449,98.043335 
	C2526.088135,98.511681 2542.457520,99.290192 2558.826904,100.015602 
	C2572.370117,100.615768 2585.915039,101.217522 2599.445801,102.039444 
	C2613.433838,102.889122 2627.414062,103.905403 2641.380371,105.056511 
	C2646.557129,105.483162 2651.684814,106.499802 2657.008789,107.272629 
	C2655.186035,119.363647 2653.459229,131.005447 2651.668945,142.637482 
	C2650.150146,152.506592 2648.779785,162.408340 2646.839111,172.195557 
	C2646.370361,174.559708 2648.294678,179.247452 2642.411621,178.898758 
z"/>
<path fill="#34E4DC" opacity="1.000000" stroke="none" 
	d="
M2585.411377,358.898743 
	C2587.332275,345.170868 2589.694824,331.512970 2591.984131,317.842834 
	C2593.183838,310.680145 2593.970459,303.434875 2595.494385,296.345337 
	C2596.341309,292.405243 2595.855225,290.951263 2591.479736,290.917206 
	C2579.204102,290.821747 2566.929688,290.385773 2554.658203,289.986206 
	C2535.601562,289.365723 2516.547852,288.666168 2497.492920,287.996704 
	C2478.604492,287.333099 2459.714600,286.697815 2440.828125,285.976959 
	C2435.872559,285.787781 2430.900391,285.518707 2425.996582,284.844971 
	C2424.893311,284.693390 2423.074219,282.547302 2423.222656,281.567993 
	C2425.475342,266.720612 2428.021484,251.917892 2430.456299,237.097778 
	C2432.008057,227.653030 2433.047607,218.096298 2435.164062,208.782242 
	C2436.498779,202.908371 2439.261719,197.330841 2441.698242,191.757797 
	C2442.228271,190.545609 2444.100830,189.920563 2445.734375,189.033600 
	C2439.639648,197.890900 2438.776611,208.470825 2437.020264,218.753876 
	C2434.705078,232.307251 2432.478027,245.876144 2430.300781,259.452423 
	C2429.187988,266.391205 2428.266357,273.360657 2427.227539,280.528961 
	C2433.245117,281.018402 2439.270752,281.773102 2445.313477,281.954102 
	C2471.184082,282.728912 2497.060791,283.311249 2522.933838,284.014282 
	C2532.373535,284.270782 2541.812988,284.591553 2551.246582,285.017487 
	C2566.950684,285.726624 2582.650146,286.544159 2599.475098,287.371307 
	C2598.871826,293.423431 2598.521484,299.603333 2597.594482,305.695465 
	C2595.550781,319.126556 2593.228516,332.515381 2590.993164,345.917053 
	C2590.374512,349.626831 2589.832275,353.365906 2588.872070,356.990143 
	C2588.642578,357.856506 2586.880127,358.316681 2585.411377,358.898743 
z"/>
<path fill="#34E4DC" opacity="1.000000" stroke="none" 
	d="
M2586.404785,538.895935 
	C2587.504150,528.211121 2588.914307,517.573975 2590.538330,506.969666 
	C2592.237549,495.872009 2594.152344,484.807404 2595.933350,473.722015 
	C2596.032715,473.102814 2595.770264,472.425537 2595.563965,471.000000 
	C2538.697021,471.000000 2481.817383,471.000000 2424.468750,470.616455 
	C2424.000000,469.210663 2424.000000,468.188416 2424.000000,467.166138 
	C2438.649170,467.110748 2453.298340,467.015228 2467.947510,467.007599 
	C2509.573486,466.985870 2551.199707,467.000000 2592.825684,467.000000 
	C2594.646484,467.000000 2596.467041,467.000000 2599.622070,467.000000 
	C2599.000488,473.349762 2598.692871,479.384796 2597.772949,485.325043 
	C2595.319824,501.163727 2592.684326,516.975830 2589.898682,532.759216 
	C2589.513916,534.939331 2587.870117,536.897217 2586.404785,538.895935 
z"/>
<path fill="#34E4DC" opacity="1.000000" stroke="none" 
	d="
M2421.000000,471.000000 
	C2406.816650,470.012451 2398.533691,464.008911 2398.144287,453.490479 
	C2397.875732,446.239746 2398.292725,438.861267 2399.362793,431.682922 
	C2402.308350,411.923401 2405.645752,392.218994 2409.142822,372.548798 
	C2409.617676,369.878571 2411.895020,367.528870 2413.726074,365.036041 
	C2410.733398,385.831635 2407.283447,406.611206 2404.014160,427.419098 
	C2403.074951,433.397949 2402.547363,439.449280 2402.029541,445.484406 
	C2401.459229,452.132355 2403.775146,457.740936 2408.887207,462.922607 
	C2412.238281,466.660156 2415.188721,470.239288 2420.587402,467.743073 
	C2420.758789,469.096710 2420.879395,470.048340 2421.000000,471.000000 
z"/>
<path fill="#34E4DC" opacity="1.000000" stroke="none" 
	d="
M2421.375000,471.000000 
	C2420.879395,470.048340 2420.758789,469.096710 2420.587402,467.743073 
	C2415.188721,470.239288 2412.238281,466.660156 2409.039307,463.217499 
	C2413.725830,464.247406 2418.459229,465.638702 2423.596191,467.098083 
	C2424.000000,468.188416 2424.000000,469.210663 2424.000000,470.616455 
	C2423.250000,471.000000 2422.500000,471.000000 2421.375000,471.000000 
z"/>
<path fill="#34E4DC" opacity="1.000000" stroke="none" 
	d="
M2449.345215,185.964645 
	C2448.992188,182.255539 2451.053223,180.974503 2454.837891,181.822906 
	C2453.249268,183.342209 2451.449219,184.578827 2449.345215,185.964645 
z"/>
<path fill="#34E4DC" opacity="1.000000" stroke="none" 
	d="
M2358.594727,167.140717 
	C2358.533203,168.592316 2358.174561,170.231598 2357.490967,171.933807 
	C2357.543213,170.440613 2357.920410,168.884491 2358.594727,167.140717 
z"/>
<path fill="#34E4DC" opacity="1.000000" stroke="none" 
	d="
M2354.622803,184.096771 
	C2354.840576,184.606598 2354.789062,185.260498 2354.451660,185.955917 
	C2354.228516,185.411911 2354.291016,184.826370 2354.622803,184.096771 
z"/>
<path fill="#34E4DC" opacity="1.000000" stroke="none" 
	d="
M2355.622803,179.096771 
	C2355.840576,179.606598 2355.789062,180.260498 2355.451660,180.955917 
	C2355.228516,180.411896 2355.291016,179.826370 2355.622803,179.096771 
z"/>
<path fill="#34E4DC" opacity="1.000000" stroke="none" 
	d="
M2356.622803,174.096771 
	C2356.840576,174.606613 2356.789062,175.260498 2356.451660,175.955917 
	C2356.228516,175.411896 2356.291016,174.826370 2356.622803,174.096771 
z"/>
<path fill="#FFFFFF" opacity="1.000000" stroke="none" 
	d="
M1426.745850,174.002655 
	C1444.810913,177.391571 1449.145630,190.843628 1449.905884,205.286255 
	C1450.799438,222.262314 1449.850220,239.212006 1445.951660,255.828522 
	C1441.777222,273.620026 1434.925293,289.870483 1416.604126,297.580597 
	C1411.026611,299.927795 1404.748169,301.730713 1398.765625,301.806610 
	C1366.788208,302.212341 1334.803101,301.993530 1302.820557,301.977509 
	C1302.340332,301.977264 1301.860229,301.808533 1301.108887,301.667572 
	C1307.781738,258.896881 1314.445435,216.185303 1321.182983,173.000000 
	C1322.842529,173.000000 1324.470337,173.000000 1326.098267,173.000000 
	C1356.748169,173.000000 1387.398193,172.974487 1418.047974,173.043488 
	C1420.802734,173.049683 1423.556152,173.666901 1426.745850,174.002655 
z"/>
<path fill="#FFFFFF" opacity="1.000000" stroke="none" 
	d="
M984.000000,173.000000 
	C1006.489319,173.000000 1028.481934,172.777878 1050.466431,173.104095 
	C1059.889526,173.243942 1068.796265,175.547043 1075.631348,183.033585 
	C1080.323242,188.172668 1083.099365,194.279922 1083.867432,200.858292 
	C1087.150513,228.977295 1082.079468,255.825668 1069.353760,280.995361 
	C1061.307373,296.910187 1047.504517,304.685730 1029.716187,304.955963 
	C1015.393005,305.173523 1001.064026,305.000000 986.737610,305.000000 
	C969.342834,305.000000 951.947998,305.000000 933.330505,305.000000 
	C937.042725,281.933319 940.568970,260.336243 943.982971,238.721497 
	C947.412598,217.007690 950.730591,195.276230 954.183105,173.000000 
	C963.934204,173.000000 973.717102,173.000000 984.000000,173.000000 
z"/>
</svg>